<?xml version="1.0" encoding="UTF-8" standalone="no"?>
<!-- Created with Inkscape (http://www.inkscape.org/) -->

<svg
   width="6mm"
   height="5mm"
   viewBox="0 0 6 5"
   version="1.1"
   id="svg1"
   inkscape:version="1.3 (0e150ed, 2023-07-21)"
   sodipodi:docname="bushl1.svg"
   xmlns:inkscape="http://www.inkscape.org/namespaces/inkscape"
   xmlns:sodipodi="http://sodipodi.sourceforge.net/DTD/sodipodi-0.dtd"
   xmlns="http://www.w3.org/2000/svg"
   xmlns:svg="http://www.w3.org/2000/svg">
  <sodipodi:namedview
     id="namedview1"
     pagecolor="#ffffff"
     bordercolor="#000000"
     borderopacity="0.25"
     inkscape:showpageshadow="2"
     inkscape:pageopacity="0.0"
     inkscape:pagecheckerboard="0"
     inkscape:deskcolor="#d1d1d1"
     inkscape:document-units="mm"
     inkscape:zoom="4.2131119"
     inkscape:cx="41.893024"
     inkscape:cy="27.770447"
     inkscape:window-width="1312"
     inkscape:window-height="449"
     inkscape:window-x="0"
     inkscape:window-y="25"
     inkscape:window-maximized="0"
     inkscape:current-layer="layer1" />
  <defs
     id="defs1">
    <clipPath
       clipPathUnits="userSpaceOnUse"
       id="clipPath681">
      <path
         d="M 0,820.346 H 640.346 V 0 H 0 Z"
         transform="translate(-450.17204,-689.33362)"
         id="path681" />
    </clipPath>
    <clipPath
       clipPathUnits="userSpaceOnUse"
       id="clipPath681-8">
      <path
         d="M 0,820.346 H 640.346 V 0 H 0 Z"
         transform="translate(-450.17204,-689.33362)"
         id="path681-1" />
    </clipPath>
  </defs>
  <g
     inkscape:label="Layer 1"
     inkscape:groupmode="layer"
     id="layer1">
    <path
       id="path680"
       d="M 0,0 C 0.852,0.096 1.996,-0.162 2.052,-1.017 2.075,-1.366 1.89,-1.69 1.702,-1.985 0.002,-4.662 -2.36,-6.916 -5.115,-8.488 l 3.578,-0.171 c 1.172,-0.057 2.441,-0.151 3.322,-0.924 0.882,-0.773 1.025,-2.643 -0.108,-2.946 -3.607,-0.965 -8.625,-0.351 -11.749,1.141 C -16.326,-8.402 -3.01,-0.338 0,0"
       style="fill:#035e30;fill-opacity:1;fill-rule:evenodd;stroke:none"
       transform="matrix(0.35277776,0,0,-0.35277776,4.6338634,0.21567343)"
       clip-path="url(#clipPath681-8)" />
  </g>
</svg>
