<?xml version="1.0" encoding="UTF-8" standalone="no"?>
<!-- Created with Inkscape (http://www.inkscape.org/) -->

<svg
   width="24.749897mm"
   height="27.842073mm"
   viewBox="0 0 24.749897 27.842073"
   version="1.1"
   id="svg1"
   inkscape:version="1.3 (0e150ed, 2023-07-21)"
   sodipodi:docname="hoja.svg"
   xmlns:inkscape="http://www.inkscape.org/namespaces/inkscape"
   xmlns:sodipodi="http://sodipodi.sourceforge.net/DTD/sodipodi-0.dtd"
   xmlns="http://www.w3.org/2000/svg"
   xmlns:svg="http://www.w3.org/2000/svg">
  <sodipodi:namedview
     id="namedview1"
     pagecolor="#ffffff"
     bordercolor="#000000"
     borderopacity="0.25"
     inkscape:showpageshadow="2"
     inkscape:pageopacity="0.0"
     inkscape:pagecheckerboard="0"
     inkscape:deskcolor="#d1d1d1"
     inkscape:document-units="mm"
     inkscape:zoom="3.1101007"
     inkscape:cx="18.166614"
     inkscape:cy="54.17831"
     inkscape:window-width="1600"
     inkscape:window-height="670"
     inkscape:window-x="0"
     inkscape:window-y="0"
     inkscape:window-maximized="0"
     inkscape:current-layer="layer1" />
  <defs
     id="defs1">
    <clipPath
       clipPathUnits="userSpaceOnUse"
       id="clipPath685">
      <path
         d="M 0,820.346 H 640.346 V 0 H 0 Z"
         transform="translate(-568.50674,-21.368901)"
         id="path685" />
    </clipPath>
    <clipPath
       clipPathUnits="userSpaceOnUse"
       id="clipPath687">
      <path
         d="M 0,820.346 H 640.346 V 0 H 0 Z"
         transform="translate(-567.69171,-21.574401)"
         id="path687" />
    </clipPath>
    <clipPath
       clipPathUnits="userSpaceOnUse"
       id="clipPath689">
      <path
         d="M 0,820.346 H 640.346 V 0 H 0 Z"
         transform="translate(-547.75109,-53.198901)"
         id="path689" />
    </clipPath>
    <clipPath
       clipPathUnits="userSpaceOnUse"
       id="clipPath691">
      <path
         d="M 0,820.346 H 640.346 V 0 H 0 Z"
         transform="translate(-557.64711,-37.863501)"
         id="path691" />
    </clipPath>
    <clipPath
       clipPathUnits="userSpaceOnUse"
       id="clipPath693">
      <path
         d="M 0,820.346 H 640.346 V 0 H 0 Z"
         transform="translate(-559.78724,-34.602126)"
         id="path693" />
    </clipPath>
  </defs>
  <g
     inkscape:label="Layer 1"
     inkscape:groupmode="layer"
     id="layer1"
     transform="translate(-92.60417,-134.67292)">
    <g
       id="g931"
       transform="matrix(0.26458333,0,0,0.26458333,-304.59617,-115.55126)">
      <path
         id="path684"
         d="m 0,0 c 0,0 -20.672,-5.436 -32.747,-2.592 -12.074,2.843 -21.517,20.406 -22.451,29.116 -0.933,8.71 1.5,20.488 1.5,20.488 0,0 10.657,-3.26 13.006,-3.14 l 2.349,0.12 c 0,0 -11.92,7.001 -13.298,8.308 -1.378,1.307 0.828,13.691 0.482,17.54 -0.346,3.85 -1.231,5.667 -1.231,5.667 0,0 11.602,-6.699 14.079,-7.288 2.477,-0.588 8.242,-1.556 9.142,-3.779 0.9,-2.223 3.756,-13.148 3.756,-13.148 0,0 4.066,6.318 3.961,9.155 l -0.104,2.837 c 0,0 13.764,-4.249 20.337,-7.744 6.574,-3.496 5.81,-2.184 6.574,-3.496 C 6.119,50.733 3.185,35.91 3.185,35.91 l 7.022,9.381 c 0,0 8.123,-9.464 2.636,-21.671 C 7.357,11.412 0,0 0,0"
         style="fill:#00a79e;fill-opacity:1;fill-rule:nonzero;stroke:none"
         transform="matrix(1.3333333,0,0,-1.3333333,1575.1111,1046.4052)"
         clip-path="url(#clipPath685)" />
      <path
         id="path686"
         d="m 0,0 c 0,0 -20.876,34.268 -29.91,47.044 -9.034,12.775 -17.674,22.781 -17.674,22.781"
         style="fill:none;stroke:#ffffff;stroke-width:0.782;stroke-linecap:round;stroke-linejoin:miter;stroke-miterlimit:10;stroke-dasharray:none;stroke-opacity:1"
         transform="matrix(1.3333333,0,0,-1.3333333,1574.0244,1046.1312)"
         clip-path="url(#clipPath687)" />
      <path
         id="path688"
         d="m 0,0 c 0,0 -7.477,0.772 -11.815,1.823 -4.337,1.052 -16.693,5.563 -16.693,5.563"
         style="fill:none;stroke:#ffffff;stroke-width:0.782;stroke-linecap:round;stroke-linejoin:miter;stroke-miterlimit:10;stroke-dasharray:none;stroke-opacity:1"
         transform="matrix(1.3333333,0,0,-1.3333333,1547.4369,1003.9652)"
         clip-path="url(#clipPath689)" />
      <path
         id="path690"
         d="m 0,0 c 0,0 3.374,10.767 4.539,18.519 1.166,7.752 0.722,14.835 0.722,14.835"
         style="fill:none;stroke:#ffffff;stroke-width:0.782;stroke-linecap:round;stroke-linejoin:miter;stroke-miterlimit:10;stroke-dasharray:none;stroke-opacity:1"
         transform="matrix(1.3333333,0,0,-1.3333333,1560.6316,1024.4124)"
         clip-path="url(#clipPath691)" />
      <path
         id="path692"
         d="m 0,0 c 0,0 -6.701,-0.809 -15.055,0.832 -8.353,1.641 -18.587,5.931 -18.587,5.931"
         style="fill:none;stroke:#ffffff;stroke-width:0.782;stroke-linecap:round;stroke-linejoin:miter;stroke-miterlimit:10;stroke-dasharray:none;stroke-opacity:1"
         transform="matrix(1.3333333,0,0,-1.3333333,1563.4851,1028.7609)"
         clip-path="url(#clipPath693)" />
    </g>
  </g>
</svg>
