<?xml version="1.0" encoding="UTF-8"?> <!-- Generator: Adobe Illustrator 22.0.1, SVG Export Plug-In . SVG Version: 6.00 Build 0) --> <svg xmlns="http://www.w3.org/2000/svg" xmlns:xlink="http://www.w3.org/1999/xlink" version="1.1" id="Capa_1" x="0px" y="0px" viewBox="0 0 240 120" style="enable-background:new 0 0 240 120;" xml:space="preserve"> <style type="text/css"> .st0{fill:url(#SVGID_1_);} .st1{fill:#5D4329;} </style> <g> <g> <g> <linearGradient id="SVGID_1_" gradientUnits="userSpaceOnUse" x1="35.4949" y1="-23.4952" x2="66.4884" y2="97.3161"> <stop offset="0" style="stop-color:#9AC452"></stop> <stop offset="0.3637" style="stop-color:#99C251"></stop> <stop offset="0.5075" style="stop-color:#96BB4F"></stop> <stop offset="0.6123" style="stop-color:#90AF4B"></stop> <stop offset="0.6983" style="stop-color:#889E46"></stop> <stop offset="0.7727" style="stop-color:#7D873F"></stop> <stop offset="0.839" style="stop-color:#706B36"></stop> <stop offset="0.898" style="stop-color:#614B2B"></stop> <stop offset="0.9104" style="stop-color:#5D4329"></stop> </linearGradient> <path class="st0" d="M80.7,55.2c-4.9-7.1-11.8-11.2-19.5-11.5c-7-0.3-13.7,2.7-17.9,7.9c-1.9,2.4-3.4,5-4.2,7.6 c-0.8,2.5-1.1,5.1-0.8,7.7c0.5,4.6,2.6,9.1,6.2,12.9c4,4.3,11.1,6.1,17.5,4.4c2.8-0.7,5.2-2,7.2-3.8c2.2-2,3.8-4.6,4.6-7.7 c1.7-6.5-0.2-12.7-5.1-16.5c-4.4-3.4-10.2-3.9-14.6-1.3c-4.2,2.5-6.4,6.7-5.8,11.3c0.6,4.1,3.3,7.7,6.7,8.6 c2.8,0.8,5.5,0.2,7.5-1.6c1.4-1.2,1.9-2.7,2.1-3.1c0.5-1.5-0.3-3.2-1.8-3.7c-1.5-0.5-3.1,0.2-3.7,1.7c0,0-0.2,0.4-0.5,0.7 c-0.3,0.3-0.9,0.6-2.1,0.3c-1-0.3-2.2-1.8-2.5-3.8c-0.4-3,1.4-4.7,3-5.6c2.4-1.4,5.7-1.1,8.2,0.9c3.1,2.3,4.2,6.1,3,10.4 c-0.5,2-1.5,3.6-2.9,4.9c-1.3,1.2-2.9,2-4.7,2.5c-4.3,1.1-9.3-0.1-11.9-2.8C46,73,44.4,69.7,44,66.3c-0.2-1.8,0-3.6,0.6-5.4 c0.6-1.9,1.7-3.9,3.2-5.7c3.1-3.8,8-5.9,13.2-5.7c5.9,0.2,11.2,3.4,15,9c1.9,2.7,2.8,6,2.8,9.4c0,3.3-0.9,6.6-2.6,9.8 c-1.8,3.3-4.2,6.1-7.2,8c-3.1,2.1-6.3,2.7-10.3,3.1c-2.7,0.3-5.3-0.4-7.9-1.1c-3.3-0.9-6.2-2.3-8.5-4.3 c-3.7-3.1-6.2-7.8-7.7-13.9c0,0,0-0.1,0-0.1c0-0.1-1.6-6,0.7-15.3c3.6-14.6,14.2-26.9,23.1-35c4.5,4.2,15.5,15.3,19,24.3 c0.6,1.5,2.2,2.2,3.7,1.7c1.5-0.6,2.2-2.2,1.7-3.7C78,28.7,61.1,13.6,60.4,13c-1.1-1-2.7-1-3.8,0c-10,8.8-22.8,22.9-27,40.2 C27.2,63.3,28.8,70,29,70.9c1.7,7.3,4.9,13,9.5,16.9c3,2.6,6.6,4.4,10.8,5.5c1.5,0.4,3,0.8,4.5,1c0,2.6-3.7,6-5.5,7.3 c-1.4,1-1.7,2.9-0.8,4.2c0,0,1.9,1.4,4.2,0.8c1-0.3,8-5.7,8.1-12.1c4-0.4,8.2-1.3,12.3-4c3.7-2.5,6.8-6,9-10.1 c2.1-3.9,3.2-8.2,3.3-12.4C84.6,63.3,83.3,58.9,80.7,55.2z"></path> <path class="st1" d="M62.8,96.8c0,0,9.5-0.8,15.4-7.2c0,0,1.6-1.2,4.5-3.9l4.8-4.1c0,0,2.8-2.2,3.7-0.6c0,0,1.3,1.2,0.1,2.9 c0,0-2.8,4.2-6.9,7.6c0,0,1.2,0.9,2.8-0.4c0,0,3.4-3.3,6.1-7.6c0,0,1.2-3.5-1.4-4.3l1.9-8.9c0,0,0.6-2.6,3.6-2.6l0.4,11 c0,0,0.5,5-1.2,7.5L92.1,95c0,0-5.9,7-16.5,8.3H59.8C59.8,103.4,62.1,100.3,62.8,96.8z"></path> <path class="st1" d="M43,103.4c0,0,1.3-2,3.4-3.5c0,0,2.3-2.1,3.1-3.1c0,0-8.9-0.8-14.8-7.2c0,0-1.6-1.2-4.5-3.9l-4.8-4.1 c0,0-2.8-2.2-3.7-0.6c0,0-1.3,1.2-0.1,2.9c0,0,2.8,4.2,6.9,7.6c0,0-1.2,0.9-2.8-0.4c0,0-3.4-3.3-6.1-7.6c0,0-1.2-3.5,1.4-4.3 L19,70.3c0,0-0.6-2.6-3.6-2.6l-0.4,11c0,0-0.5,5,1.2,7.5l4.6,8.8c0,0,5.9,7,16.5,8.3H43"></path> </g> <g> <g> <path class="st1" d="M133.5,62.2h-8.8v-0.7h0.2c1.2,0,1.8-1.8,1.8-3.5V32.3c-0.1-1.6-0.6-3.3-1.8-3.3h-0.2v-0.7l21.7,0l0.6,4.4 h-0.7l0-0.1c-0.4-1.2-1.2-1.9-3.5-1.9h-11.2v12.6h6.6c1.7,0,3.5-0.6,3.5-1.8v-0.2h0.7v6.4h-0.7v-0.2c0-1.2-1.8-1.8-3.5-1.8h-6.6 V58c0,1.8,0.6,3.5,1.8,3.5h0.2V62.2z"></path> </g> <g> <path class="st1" d="M172.3,62.2h-8.8v-0.7h0.2c1.2,0,1.8-1.8,1.8-3.5V30.7h-6.2c-2.4,0-3.1,0.7-3.5,1.8l0,0.1H155l0.6-4.4 l24.5,0l0.6,4.4h-0.7l0-0.1c-0.4-1.2-1.2-1.9-3.5-1.9h-6.2V58c0,1.7,0.6,3.5,1.8,3.5h0.2V62.2z"></path> </g> <g> <path class="st1" d="M220,62.2h-8.8v-0.7h0.2c1.1,0,1.7-1.7,1.8-3.3V35.1l-7.7,27.1h-3.7l0-0.1l-7.9-26.7V58 c0,1.7,0.6,3.5,1.8,3.5h0.2v0.7h-6.4v-0.7h0.2c1.2,0,1.8-1.8,1.8-3.5V32.5c0-1.7-0.6-3.5-1.8-3.5h-0.2v-0.7h7.5l0,0.1l8,27 l7.7-27.1h7.5V29h-0.2c-1.1,0-1.7,1.7-1.8,3.3v25.9c0.1,1.6,0.6,3.3,1.8,3.3h0.2V62.2z"></path> </g> </g> <g> <g> <g> <path class="st1" d="M127.9,81.2h-2.5V81h0.1c0.3,0,0.5-0.5,0.5-1v-7.1c0-0.4-0.2-0.9-0.5-0.9h-0.1v-0.2l6,0l0.2,1.2h-0.2l0,0 c-0.1-0.3-0.3-0.5-1-0.5h-3.1v3.5h1.8c0.5,0,1-0.2,1-0.5v-0.1h0.2v1.8h-0.2v-0.1c0-0.3-0.5-0.5-1-0.5h-1.8V80 c0,0.5,0.2,1,0.5,1h0.1V81.2z"></path> </g> <g> <path class="st1" d="M134.7,81.3c-2,0-3.6-1.6-3.6-3.7s1.6-3.7,3.6-3.7c2,0,3.6,1.6,3.6,3.7S136.6,81.3,134.7,81.3z M134.7,74.6c-1.2,0-2.2,1.4-2.2,3.1s1,3.1,2.2,3.1c1.2,0,2.2-1.4,2.2-3.1S135.9,74.6,134.7,74.6z"></path> </g> <g> <path class="st1" d="M145.7,81.2h-2.3V81h0.1c0.3,0,0.5-0.5,0.5-1v-2.6c0-1.7-0.6-2.7-1.7-2.7c-1,0-1.8,1.4-1.8,3.1V80 c0,0.5,0.2,1,0.5,1h0.1v0.2h-2.3V81h0.1c0.3,0,0.5-0.5,0.5-1v-4.5c0-0.5-0.2-1-0.5-1h-0.1v-0.2l1.2-0.2l0.6,0v1.1 c0.4-0.6,1-1.2,2-1.2c1.6,0,2.6,1.3,2.6,3.3V80c0,0.5,0.2,1,0.5,1h0.1V81.2z"></path> </g> <g> <path class="st1" d="M151.3,81.3L151.3,81.3c-0.1-0.3-0.2-0.7-0.2-1.3c-0.4,0.6-1,1.3-2.2,1.3c-1.5,0-2.8-1.6-2.8-3.7 c0-2,1.3-3.7,2.8-3.7c1.2,0,1.8,0.7,2.2,1.3v-2.6c0-0.5-0.2-1-0.5-1h-0.1v-0.2l1.2-0.2l0.6,0v8c0,0.7,0.1,1.5,0.8,1.5h0.1V81 L151.3,81.3z M149.2,74.6c-1,0-1.7,1.3-1.7,3.1s0.8,3.1,1.7,3.1c1,0,1.9-1.4,1.9-3.1S150.2,74.6,149.2,74.6z"></path> </g> <g> <path class="st1" d="M156.9,81.3c-2,0-3.6-1.6-3.6-3.7s1.6-3.7,3.6-3.7s3.6,1.6,3.6,3.7S158.8,81.3,156.9,81.3z M156.9,74.6 c-1.2,0-2.2,1.4-2.2,3.1s1,3.1,2.2,3.1s2.2-1.4,2.2-3.1S158,74.6,156.9,74.6z"></path> </g> <g> <path class="st1" d="M169.7,81.2h-2.5V81h0.1c0.3,0,0.5-0.5,0.5-1v-7.6H166c-0.7,0-0.9,0.2-1,0.5l0,0h-0.2l0.2-1.2l6.8,0 L172,73h-0.2l0,0c-0.1-0.3-0.3-0.5-1-0.5h-1.7V80c0,0.5,0.2,1,0.5,1h0.1V81.2z"></path> </g> <g> <path class="st1" d="M174.5,81.3c-1.9,0-3.4-1.7-3.4-3.7c0-2,1.5-3.7,3.3-3.7c1.7,0,2.9,1.4,2.9,3.4v0.1l-4.8,0 c0,0.1,0,0.2,0,0.2c0,1.7,1,3.1,2.2,3.1c0.9,0,1.6-0.5,2-1.2l0,0l0.5,0.2l0,0.1C176.6,80.8,175.8,81.3,174.5,81.3z M172.5,76.8 h3.2c-0.1-1.3-0.7-2.1-1.5-2.1l0,0C173.4,74.7,172.7,75.5,172.5,76.8z"></path> </g> <g> <path class="st1" d="M180,81.2h-2.3V81h0.1c0.3,0,0.5-0.5,0.5-1v-4.5c0-0.5-0.2-1-0.5-1h-0.1v-0.2l1.2-0.2l0.6,0v0.7 c0.4-0.6,0.9-0.9,1.6-0.9c1.1,0,1.8,0.8,1.8,1.6c0,0.4-0.3,0.7-0.7,0.7c-0.2,0-0.5-0.1-0.5-0.5c0-0.7-0.4-1.2-1-1.2 c-0.5,0-1.3,0.9-1.3,3.1V80c0,0.5,0.2,1,0.5,1h0.1V81.2z"></path> </g> <g> <path class="st1" d="M185.4,81.2h-2.3V81h0.1c0.3,0,0.5-0.5,0.5-1v-4.5c0-0.5-0.2-1-0.5-1h-0.1v-0.2l1.2-0.2l0.6,0v0.7 c0.4-0.6,0.9-0.9,1.6-0.9c1.1,0,1.8,0.8,1.8,1.6c0,0.4-0.3,0.7-0.7,0.7c-0.2,0-0.5-0.1-0.5-0.5c0-0.7-0.4-1.2-1-1.2 c-0.5,0-1.3,0.9-1.3,3.1V80c0,0.5,0.2,1,0.5,1h0.1V81.2z"></path> </g> <g> <path class="st1" d="M190.9,81.2h-2.3V81h0.1c0.3,0,0.5-0.5,0.5-1v-4.5c0-0.5-0.2-1-0.5-1h-0.1v-0.2l1.2-0.2l0.6,0V80 c0,0.5,0.2,1,0.5,1h0.1V81.2z M189.7,73.7c-0.4,0-0.7-0.4-0.7-0.8c0-0.4,0.3-0.8,0.7-0.8c0.4,0,0.7,0.4,0.7,0.8 C190.4,73.4,190.1,73.7,189.7,73.7z"></path> </g> <g> <path class="st1" d="M193.4,81.3c-1,0-1.9-0.8-1.9-1.9v-4.8h-0.4v-0.5h0.1c0.6,0,1-0.8,1-1.9v-0.1h0.6v1.9h1.5v0.5h-1.5v4.8 c0,0.7,0.4,1.3,0.9,1.3c0.3,0,0.6-0.2,0.8-0.5l0-0.1l0.4,0.4l0,0C194.6,81.1,194.1,81.3,193.4,81.3z"></path> </g> <g> <path class="st1" d="M198.2,81.3c-2,0-3.6-1.6-3.6-3.7s1.6-3.7,3.6-3.7s3.6,1.6,3.6,3.7S200.2,81.3,198.2,81.3z M198.2,74.6 c-1.2,0-2.2,1.4-2.2,3.1s1,3.1,2.2,3.1c1.2,0,2.2-1.4,2.2-3.1S199.4,74.6,198.2,74.6z"></path> </g> <g> <path class="st1" d="M204.6,81.2h-2.3V81h0.1c0.3,0,0.5-0.5,0.5-1v-4.5c0-0.5-0.2-1-0.5-1h-0.1v-0.2l1.2-0.2l0.6,0v0.7 c0.4-0.6,0.9-0.9,1.6-0.9c1.1,0,1.8,0.8,1.8,1.6c0,0.4-0.3,0.7-0.7,0.7c-0.2,0-0.5-0.1-0.5-0.5c0-0.7-0.4-1.2-1-1.2 c-0.5,0-1.3,0.9-1.3,3.1V80c0,0.5,0.2,1,0.5,1h0.1V81.2z"></path> </g> <g> <path class="st1" d="M210,81.2h-2.3V81h0.1c0.3,0,0.5-0.5,0.5-1v-4.5c0-0.5-0.2-1-0.5-1h-0.1v-0.2l1.2-0.2l0.6,0V80 c0,0.5,0.2,1,0.5,1h0.1V81.2z M208.8,73.7c-0.4,0-0.7-0.4-0.7-0.8c0-0.4,0.3-0.8,0.7-0.8c0.4,0,0.7,0.4,0.7,0.8 C209.6,73.4,209.2,73.7,208.8,73.7z"></path> </g> <g> <path class="st1" d="M212.9,81.3c-1.4,0-2.5-1.2-2.5-2.7c0-1.3,0.5-1.6,2.2-1.6c1.4,0,2.1-0.1,2.4-0.4c0.1-0.1,0.1-0.2,0.1-0.4 c-0.2-1-0.8-1.6-1.6-1.6c-0.8,0-1.3,0.5-1.3,1.2c0,0.4-0.3,0.6-0.6,0.6c-0.2,0-0.5-0.2-0.5-0.6c0-1,1.1-1.8,2.6-1.8 c1.7,0,2.9,1.3,2.9,3.2V80c0,0.5,0.2,1,0.5,1h0.1v0.2h-0.6c-0.5,0-1-0.3-1.1-0.8C214.7,81,214,81.3,212.9,81.3z M213,77.6 c-0.5,0-0.9,0-1.1,0.3c-0.1,0.1-0.2,0.3-0.2,0.6c0,1.2,0.7,2.3,1.5,2.3c1.1,0,1.8-1.3,1.8-3.4c-0.2,0.1-0.6,0.3-1.6,0.3 c-0.1,0-0.2,0-0.3,0C213.2,77.6,213.1,77.6,213,77.6z"></path> </g> <g> <path class="st1" d="M219.6,81.2h-2.3V81h0.1c0.3,0,0.5-0.5,0.5-1v-7.3c0-0.5-0.2-1-0.5-1h-0.1v-0.2l1.2-0.2l0.6,0V80 c0,0.5,0.2,1,0.5,1h0.1V81.2z"></path> </g> <g> <path class="st1" d="M136.4,96.1h-2.5v-0.2h0.1c0.3,0,0.5-0.5,0.5-0.9v-6.4l-2.1,7.5h-1l0,0l-2.2-7.4v6.3c0,0.5,0.2,1,0.5,1 h0.1v0.2h-1.8v-0.2h0.1c0.3,0,0.5-0.5,0.5-1v-7.1c0-0.5-0.2-1-0.5-1h-0.1v-0.2h2.1l0,0l2.2,7.5l2.1-7.5h2.1v0.2h-0.1 c-0.3,0-0.5,0.5-0.5,0.9V95c0,0.4,0.2,0.9,0.5,0.9h0.1V96.1z"></path> </g> <g> <path class="st1" d="M140.3,96.3c-1.9,0-3.4-1.7-3.4-3.7c0-2,1.5-3.7,3.3-3.7c1.7,0,2.9,1.4,2.9,3.4v0.1l-4.8,0 c0,0.1,0,0.2,0,0.2c0,1.7,1,3.1,2.2,3.1c0.9,0,1.6-0.5,2-1.2l0,0l0.5,0.2l0,0.1C142.4,95.7,141.5,96.3,140.3,96.3z M138.3,91.7 h3.2c-0.1-1.3-0.7-2.1-1.5-2.1l0,0C139.1,89.6,138.5,90.4,138.3,91.7z"></path> </g> <g> <path class="st1" d="M146.7,96.3c-0.7,0-1.2-0.1-1.6-0.2c-0.3-0.1-0.5-0.1-0.7-0.1c-0.2,0-0.3,0.1-0.3,0.2l0,0h-0.3v-2.4h0.2 l0,0c0.4,1.3,1.3,1.9,2.7,1.9c1.1,0,1.6-0.5,1.6-1.1c0-0.9-1-1.2-2-1.6c-1.2-0.4-2.4-0.8-2.4-2.2c0-1.1,1.1-1.9,2.6-1.9 c0.6,0,1,0.1,1.3,0.2c0.2,0.1,0.4,0.1,0.5,0.1c0.2,0,0.3-0.1,0.3-0.1l0,0h0.3l0,0.1l0.2,2h-0.2l0,0c-0.3-1.1-1.1-1.6-2.4-1.6 c-0.8,0-1.6,0.4-1.6,1c0,0.6,0.9,0.9,1.8,1.2c1.3,0.4,2.8,0.9,2.8,2.4C149.6,95.4,148.4,96.3,146.7,96.3z"></path> </g> <g> <path class="st1" d="M153.6,96.3c-2,0-3.6-1.6-3.6-3.7s1.6-3.7,3.6-3.7s3.6,1.6,3.6,3.7S155.6,96.3,153.6,96.3z M153.6,89.6 c-1.2,0-2.2,1.4-2.2,3.1s1,3.1,2.2,3.1c1.2,0,2.2-1.4,2.2-3.1S154.8,89.6,153.6,89.6z"></path> </g> <g> <path class="st1" d="M160.2,96.3c-1.4,0-2.5-1.2-2.5-2.7c0-1.3,0.5-1.6,2.2-1.6c1.4,0,2.1-0.1,2.4-0.4c0.1-0.1,0.1-0.2,0.1-0.4 c-0.2-1-0.8-1.6-1.6-1.6c-0.8,0-1.3,0.5-1.3,1.2c0,0.4-0.3,0.6-0.6,0.6c-0.2,0-0.5-0.2-0.5-0.6c0-1,1.1-1.8,2.6-1.8 c1.7,0,2.9,1.3,2.9,3.2v2.8c0,0.5,0.2,1,0.5,1h0.1v0.2h-0.6c-0.5,0-1-0.3-1.1-0.8C162,95.9,161.2,96.3,160.2,96.3z M160.3,92.5 c-0.5,0-0.9,0-1.1,0.3c-0.1,0.1-0.2,0.3-0.2,0.6c0,1.2,0.7,2.3,1.5,2.3c1.1,0,1.8-1.3,1.8-3.4c-0.2,0.1-0.6,0.3-1.6,0.3 c-0.1,0-0.2,0-0.3,0C160.5,92.5,160.4,92.5,160.3,92.5z"></path> </g> <g> <path class="st1" d="M174,96.1h-2.3v-0.2h0.1c0.3,0,0.5-0.5,0.5-1v-2.8c0-1.6-0.4-2.6-1.1-2.6c-0.6,0-1.2,1.4-1.2,3.1v2.3 c0,0.5,0.2,1,0.5,1h0.1v0.2h-2.3v-0.2h0.1c0.3,0,0.5-0.5,0.5-1v-2.8c0-1.6-0.4-2.6-1.1-2.6c-0.6,0-1.2,1.4-1.2,3.1v2.3 c0,0.5,0.2,1,0.5,1h0.1v0.2h-2.3v-0.2h0.1c0.3,0,0.5-0.5,0.5-1v-4.5c0-0.5-0.2-1-0.5-1h-0.1v-0.2l1.2-0.2l0.6,0v0.8 c0.4-0.6,0.9-1,1.5-1c0.9,0,1.5,0.5,1.8,1.5c0.3-0.7,0.8-1.5,1.7-1.5c1.3,0,2.1,1.2,2.1,3.2v2.8c0,0.5,0.2,1,0.5,1h0.1V96.1z"></path> </g> <g> <path class="st1" d="M177.8,96.3c-1.9,0-3.4-1.7-3.4-3.7c0-2,1.5-3.7,3.3-3.7c1.7,0,2.9,1.4,2.9,3.4v0.1l-4.8,0 c0,0.1,0,0.2,0,0.2c0,1.7,1,3.1,2.2,3.1c0.9,0,1.6-0.5,2-1.2l0,0l0.5,0.2l0,0.1C179.9,95.7,179.1,96.3,177.8,96.3z M175.8,91.7 h3.2c-0.1-1.3-0.7-2.1-1.5-2.1l0,0C176.7,89.6,176,90.4,175.8,91.7z"></path> </g> <g> <path class="st1" d="M183.3,96.1H181v-0.2h0.1c0.3,0,0.5-0.5,0.5-1v-4.5c0-0.5-0.2-1-0.5-1H181v-0.2l1.2-0.2l0.6,0v0.7 c0.4-0.6,0.9-0.9,1.6-0.9c1.1,0,1.8,0.8,1.8,1.6c0,0.4-0.3,0.7-0.7,0.7c-0.2,0-0.5-0.1-0.5-0.5c0-0.7-0.4-1.2-1-1.2 c-0.5,0-1.3,0.9-1.3,3.1v2.3c0,0.5,0.2,1,0.5,1h0.1V96.1z"></path> </g> <g> <path class="st1" d="M188.7,96.1h-2.3v-0.2h0.1c0.3,0,0.5-0.5,0.5-1v-4.5c0-0.5-0.2-1-0.5-1h-0.1v-0.2l1.2-0.2l0.6,0v5.8 c0,0.5,0.2,1,0.5,1h0.1V96.1z M187.6,88.7c-0.4,0-0.7-0.4-0.7-0.8c0-0.4,0.3-0.8,0.7-0.8c0.4,0,0.7,0.4,0.7,0.8 C188.3,88.3,188,88.7,187.6,88.7z"></path> </g> <g> <path class="st1" d="M192.6,96.3c-1.9,0-3.4-1.7-3.4-3.7c0-2,1.5-3.7,3.3-3.7c1.6,0,2.6,0.7,2.6,1.8c0,0.5-0.3,0.7-0.6,0.7 c-0.3,0-0.6-0.2-0.6-0.7c0-0.7-0.5-1.2-1.3-1.2c-1.2,0-2.1,1.3-2.1,3.1c0,1.7,1,3.1,2.2,3.1c0.9,0,1.6-0.5,2-1.2l0,0l0.5,0.2 l0,0.1C194.7,95.7,193.9,96.3,192.6,96.3z"></path> </g> <g> <path class="st1" d="M198.2,96.3c-1.4,0-2.5-1.2-2.5-2.7c0-1.3,0.5-1.6,2.2-1.6c1.4,0,2.1-0.1,2.4-0.4c0.1-0.1,0.1-0.2,0.1-0.4 c-0.2-1-0.8-1.6-1.6-1.6c-0.8,0-1.3,0.5-1.3,1.2c0,0.4-0.3,0.6-0.6,0.6c-0.2,0-0.5-0.2-0.5-0.6c0-1,1.1-1.8,2.6-1.8 c1.7,0,2.9,1.3,2.9,3.2v2.8c0,0.5,0.2,1,0.5,1h0.1v0.2h-0.6c-0.5,0-1-0.3-1.1-0.8C199.9,95.9,199.2,96.3,198.2,96.3z M198.3,92.5c-0.5,0-0.9,0-1.1,0.3c-0.1,0.1-0.2,0.3-0.2,0.6c0,1.2,0.7,2.3,1.5,2.3c1.1,0,1.8-1.3,1.8-3.4 c-0.2,0.1-0.6,0.3-1.6,0.3c-0.1,0-0.2,0-0.3,0C198.4,92.5,198.3,92.5,198.3,92.5z"></path> </g> <g> <path class="st1" d="M209.5,96.1h-2.3v-0.2h0.1c0.3,0,0.5-0.5,0.5-1v-2.6c0-1.7-0.6-2.7-1.7-2.7c-1,0-1.8,1.4-1.8,3.1v2.3 c0,0.5,0.2,1,0.5,1h0.1v0.2h-2.3v-0.2h0.1c0.3,0,0.5-0.5,0.5-1v-4.5c0-0.5-0.2-1-0.5-1h-0.1v-0.2l1.2-0.2l0.6,0v1.1 c0.4-0.6,1-1.2,2-1.2c1.6,0,2.6,1.3,2.6,3.3v2.6c0,0.5,0.2,1,0.5,1h0.1V96.1z"></path> </g> <g> <path class="st1" d="M213.5,96.3c-2,0-3.6-1.6-3.6-3.7s1.6-3.7,3.6-3.7s3.6,1.6,3.6,3.7S215.4,96.3,213.5,96.3z M213.5,89.6 c-1.2,0-2.2,1.4-2.2,3.1s1,3.1,2.2,3.1c1.2,0,2.2-1.4,2.2-3.1S214.7,89.6,213.5,89.6z"></path> </g> </g> </g> </g> </g> </svg> 