<?xml version="1.0" encoding="UTF-8"?> <svg xmlns="http://www.w3.org/2000/svg" xmlns:xlink="http://www.w3.org/1999/xlink" version="1.1" id="Capa_2" x="0px" y="0px" viewBox="0 0 1400 252.4" style="enable-background:new 0 0 1400 252.4;" xml:space="preserve"> <style type="text/css"> .st0{fill:#6B7D41;} .st1{fill:none;} .st2{fill:#D2E4CB;} </style> <g id="Capa_1-2_1_"> <g> <g> <path class="st0" d="M1043.3,73.2c2,2.1,4,4.3,5.9,6.4c5.7,6.3,11.3,12.5,17.1,18.3c0.3,0.2,0.5,0.5,0.8,0.9 c-0.1,0.3-0.1,0.6-0.2,0.8c-3.9,6.7-7.1,14.1-10.6,21.4c-1.1,2.4-2.3,4.7-3.4,7.2c-2.9,6.5-6.5,12.6-10.5,18.4 c-2.1,3.1-4.3,6.2-6.5,9.4c-1.6,2.4-3.2,4.8-4.7,7.4c-1.6,2.7-3,5.5-4.1,8.6c-0.1,0.3-0.3,0.5-0.5,1c-0.2-0.5-0.4-0.8-0.5-1.1 c-1.1-4.6-1.9-9.3-2.7-14c-0.1-0.8,0-1.4,0.2-2.1c1.9-7.3,4-14.6,6.4-21.5c2.2-6.3,3.8-12.8,4.6-19.7c0.6-4.9,1.3-9.8,1.9-14.8 c0.9-6.9,2.1-13.6,3.7-20.1c0.6-2.4,1.3-4.7,2-6.9C1042.7,72.5,1043,72.9,1043.3,73.2L1043.3,73.2z M1030.6,62.6 c0.1-0.4,0.2-0.9,0.3-1.3c0.9,0.4,1.6,1.2,2.4,1.9c4.1,3.7,6.3,5.9,7.3,7.4c-0.3,0.6-0.6,1.2-0.8,1.8c-3.1,8.1-5.5,16.7-6.5,26.2 c-0.5,4.7-0.9,9.4-1.4,14.1c-0.1,0.6-0.1,1.3-0.2,1.9c-0.5,6.4-1.8,12.4-3.8,18.1c-0.6,1.6-1.1,3.3-1.7,5 c-1.2,3.4-2.2,7-3.1,10.6c-0.1,0.5-0.3,1-0.5,1.8c-0.2-0.8-0.3-1.2-0.4-1.6c-0.3-1.8-0.5-3.7-0.8-5.5c-0.2-1,0-1.9,0.6-2.5 c1-1.1,1.3-2.5,1.6-4c0.6-2.7,1.2-5.3,1.8-8c1.3-6.3,2.2-12.7,2.3-19.4c0-3.4,0-6.8,0.1-10.2c0.1-5.8,0.3-11.5,0.5-17.3 c0.1-4.1,0.5-8.1,1.2-12C1029.7,67.4,1030.1,65,1030.6,62.6L1030.6,62.6z M1019.9,52.5c0.7,0.1,1.2,0.6,1.7,1 c4.5,3.4,6.1,4.7,7.3,6c-0.1,0.2-0.1,0.5-0.2,0.8c-2,6.1-3.2,12.7-3.6,19.7c-0.2,4.1-0.4,8.2-0.5,12.3c-0.2,5-0.2,10.1-0.4,15.1 c-0.2,8.1-1,16-2.7,23.6c-0.2,1-0.4,2-0.6,2.9c-0.1,0.3-0.2,0.5-0.3,0.8c-0.4-0.8-0.4-1.4-0.4-2c-0.6-4.3-1.3-8.5-2.3-12.8 c-1.3-4.9-2.8-9.8-4.5-14.6c-0.8-2.1-1.6-4.2-2.4-6.3c-0.1-0.4-0.3-0.9-0.2-1.3c0.3-3.4,0.7-6.7,1.1-10.1 c0.2-1.6,0.3-3.1,0.5-4.7c0.6-6.1,1.8-11.7,3.6-17.1c1.2-3.8,2.4-7.6,3.6-11.3C1019.6,54,1019.7,53.2,1019.9,52.5L1019.9,52.5z M976.7,32.3c6.6,2.9,13.3,5.1,19.9,7.5c6.3,2.3,12.5,5.4,18.6,9.3c0.6,0.4,1.2,0.8,2,1.3c-0.1,0.5-0.2,0.9-0.3,1.2 c-2.5,7.1-4.6,14.6-6.1,22.6c-0.8,4.1-1.1,8.3-1.4,12.6c-0.1,1.9-0.2,3.8-0.4,5.7c0,0.4-0.1,0.8-0.2,1.4 c-0.3-0.3-0.4-0.4-0.5-0.6c-0.2-0.5-0.4-0.9-0.7-1.4c-2.4-5.3-5.1-10.4-7.9-15.5c-3.5-6.5-7.4-12.8-11.1-19.3 c-3.6-6.2-7.1-12.5-10.4-19.1c-0.8-1.6-1.5-3.2-2.2-4.8c-0.1-0.2-0.2-0.5-0.3-1.1C976.1,32.1,976.4,32.2,976.7,32.3L976.7,32.3z M972.3,35.9c0-0.4,0.1-0.8,0.2-1.2c0.5,0.1,0.6,0.6,0.7,0.9c1.4,3.5,3,6.9,4.8,10.2c2.1,3.8,4.2,7.5,6.3,11.2c2,3.4,4,6.7,6,9.9 c0.2,0.3,0.3,0.7,0.5,1c-0.1,0.1-0.1,0.1-0.2,0.2c-0.3-0.2-0.6-0.4-0.8-0.6c-1.5-1.3-3.1-2.3-4.7-3.3c-2.4-1.4-4.9-2.8-7.3-4.3 c-1-0.6-1.9-1.3-2.8-2.1c-1.3-1.1-2.6-2.4-3.9-3.6c0-0.4-0.1-0.8-0.1-1.2C971.4,47.4,971.8,41.6,972.3,35.9z M967.6,75.6 c1.2-5.4,2.1-10.8,2.7-16.4c0-0.4,0.1-0.7,0.2-1c0.3-0.2,0.6,0.1,0.8,0.3c2.7,2.8,5.6,4.7,8.7,6.1c1.4,0.7,2.8,1.3,4.2,2 c4,1.8,7.6,4.9,10.9,8.6c0.9,1,1.5,2.2,2.2,3.4c2.7,4.8,5.3,9.6,7.7,14.5c1.9,4,3.6,8,5.2,12.1c1.2,3.2,2.2,6.4,3.3,9.6 c0.2,0.5,0.3,1.1,0.4,1.6c-0.1,0.1-0.2,0.1-0.2,0.2c-0.3-0.3-0.6-0.5-0.9-0.8c-1.1-1.2-2.2-2.4-3.3-3.6c-5-5.6-10.6-10-16.6-13.4 c-2.4-1.4-4.9-2.8-7.3-4.3c-2.4-1.4-4.7-3.3-6.9-5.5c-2.9-3.1-5.8-6.4-8.8-9.6c-0.8-0.9-1.6-1.8-2.4-2.7 C967.5,76.4,967.5,76,967.6,75.6L967.6,75.6z M963.1,92.1c1.2-4.1,2.3-8.1,3.5-12.1c0-0.1,0.1-0.1,0.3-0.3 c0.2,0.2,0.4,0.4,0.5,0.7c5.1,8.6,11.2,15.1,18.8,18.8c1.3,0.6,2.6,1.2,3.9,1.8c1.6,0.7,3.3,1.5,4.9,2.2c4.2,1.9,8,4.8,11.5,8.6 c2.7,3,5.4,6.1,8.1,9.1c0.5,0.5,0.8,1.1,0.9,1.8c0.4,2.5,0.9,5,1.3,7.4c0.7,5.1,1.3,10.1,1.9,15.2c0,0.3,0,0.7,0.1,1.5 c-0.6-0.7-0.9-1-1.2-1.4c-1.4-1.6-2.8-3.3-4.3-4.8c-4.3-4.3-8.3-9-12.2-14c-3.7-4.7-7.7-8.6-12.2-11.9c-2.2-1.6-4.4-3.2-6.6-4.6 c-3.1-2.1-6.1-4.1-9.1-6.5c-2.4-2-4.7-4.2-6.7-6.8c-1-1.3-2.1-2.6-3.2-4C963,92.6,963,92.3,963.1,92.1L963.1,92.1z M962.2,95 c0.4,0.5,0.6,0.7,0.8,1c2.9,5,6.4,8.9,10.5,12c2.4,1.9,4.9,3.6,7.4,5.3c2.6,1.8,5.1,3.7,7.7,5.5c3.5,2.6,6.6,5.7,9.6,9.2 c3.1,3.6,6.3,7.1,9.5,10.6c1.9,2,3.9,3.9,5.8,5.9c1.7,1.7,3.2,3.6,4.5,5.8c0,0.1,0.1,0.1,0.1,0.2c1.2,1.3,1.6,2.9,1.8,4.7 c0.1,1.1,0.3,2.2,0.5,3.3c0,0.1,0,0.2-0.1,0.6c-0.5-0.5-0.9-0.8-1.2-1.2c-2.5-2.9-5.3-5.5-8.2-7.8c-4.5-3.7-8.6-8-12.4-12.8 c-3.5-4.4-7.2-8.7-11.1-12.5c-2.5-2.4-5-4.7-7.7-6.8c-1.6-1.3-3.3-2.6-4.9-3.9c-4.9-3.8-9.2-8.7-13.1-14.1 c-0.3-0.3-0.5-0.7-0.7-1.1C961.3,97.4,961.7,96.3,962.2,95L962.2,95z M1028.8,192.9c-0.2-0.2-0.4-0.4-0.6-0.5 c-2.6-2.7-5.4-4.9-8.5-6.8c-3.5-2.3-7.2-4.2-11-5.7c-2.5-1-5-2.1-7.4-3.1c-11.4-4.6-21.8-11.4-31.4-20.6 c-7-6.7-13.5-14.2-19.5-22.6c-0.3-0.4-0.6-0.8-0.8-1.3c-0.1-0.2-0.1-0.4-0.2-0.5c0.8-3.7,9.2-27.7,10.9-30.7 c0.4-0.1,0.5,0.4,0.7,0.7c3.3,4.9,7.1,8.9,11.3,12.4c1.2,1,2.4,2.1,3.6,3c6.9,5.4,13.1,11.8,18.8,18.9c1.3,1.6,2.6,3.2,3.9,4.8 c2.7,3.3,5.5,6.3,8.6,9c0.7,0.6,1.4,1.2,2.1,1.8c3.6,3.1,7,6.4,10,10.3c0.4,0.5,0.8,1.1,1.3,1.4c0.8,0.6,1,1.4,1.2,2.3 c0.6,2.9,1.2,5.7,1.8,8.6c1.4,6.1,3.1,11.9,5.2,17.7c0.1,0.3,0.1,0.5,0.2,0.8C1028.9,192.8,1028.8,192.9,1028.8,192.9 L1028.8,192.9z M1034.5,194.6c0,0.4-0.1,0.8-0.1,1.5c-0.7-0.6-0.8-1.2-1-1.7c-1.9-4.5-3.5-9.2-4.9-14c-0.3-1-0.3-1.8,0-2.8 c1.3-4.1,3.1-7.9,5.2-11.4c2.4-4.1,5.1-8,7.7-11.9c2.1-3.1,4.2-6.2,6.3-9.3c3.5-5.3,6.5-10.9,9.1-16.8c2.5-5.6,4.9-11.2,7.3-16.6 c1.5-3.4,3.2-6.6,4.8-9.8c0.1-0.3,0.3-0.5,0.6-0.8c1.3,1.2,2.6,2.3,3.8,3.6c-0.1,0.3-0.1,0.5-0.2,0.6c-1.2,2.7-2.3,5.5-3.6,8.3 c-5,11.5-10.7,22.6-16.9,33.8c-1.8,3.1-3.6,6.2-5.4,9.4c-2.4,4.2-4.8,8.5-6.8,13.1c-2.4,5.5-4.3,11.3-5.1,17.7 C1034.9,189.8,1034.7,192.2,1034.5,194.6L1034.5,194.6z M1095.7,125c-3.6,5.6-7.1,11.3-10.8,17c-4.5,6.7-10,12.6-15.8,18.2 c-2.8,2.7-5.6,5.5-8.4,8.3c-1.1,1.1-2,2.3-3,3.6c-2.1,2.7-3.8,5.9-4.9,9.4c-0.7,2.1-1.3,4.3-1.9,6.4c-0.5,1.7-1,3.4-1.6,5.1 c-0.8,2.2-1.8,4.3-3.1,6.2c-1,1.4-2.1,2.8-3.1,4.2c-1,1.4-1.9,2.8-2.8,4.2c-0.3,0.1-0.5-0.2-0.6-0.5c-0.8-1.5-1.6-3-2.4-4.4 c-0.3-0.6-0.5-1.2-0.4-1.9c0.7-7.6,1.5-15.2,3.9-22.3c1.3-4,2.9-7.7,4.7-11.4c1.4-2.8,2.8-5.6,4.3-8.4 c5.9-10.9,11.5-21.8,16.5-32.8c2.5-5.5,4.9-10.9,7-16.5c0.2-0.6,0.5-1.3,0.7-1.9c0.2-0.5,0.4-1,0.7-1.7 c7.2,6.3,14.2,12.4,21.2,18.4C1095.8,124.6,1095.8,124.8,1095.7,125L1095.7,125z M1283.9,1.3c0.1-0.2,0.2-0.3,0.5-0.7 c0.2,0.4,0.3,0.6,0.3,0.8c1.4,5.4,3.3,10.5,5.1,15.7c1.7,4.9,2.8,10.2,3.4,15.8c0.1,0.6,0.1,1.2,0.1,1.8 c-0.3,0.2-0.6,0.3-0.9,0.4c-5.6,1.9-11.1,4.3-16.7,7.2c-2.9,1.5-5.6,3.3-8.4,5.3c-1.2,0.9-2.4,1.7-3.6,2.5 c-0.3,0.2-0.5,0.3-0.9,0.5c0.1-0.3,0.1-0.5,0.1-0.6c0.2-0.4,0.4-0.7,0.5-1.1c2-4,3.8-8.1,5.6-12.3c2.3-5.3,4.2-10.7,6.4-16.1 c2-5.2,4.2-10.4,6.6-15.6C1282.7,3.8,1283.3,2.5,1283.9,1.3L1283.9,1.3z M1268.3,12.7c0.1-1.4,0.2-2.7,0.3-4.2 c0.2-0.2,0.4-0.4,0.7-0.6c3.7-2.5,7.4-5,11.1-7.5c0.3-0.2,0.6-0.3,0.8-0.4c0.2,0.3-0.1,0.6-0.2,0.9c-1.5,2.6-2.7,5.2-3.9,7.8 c-1.3,3.1-2.6,6.2-3.8,9.2c-1.1,2.8-2.1,5.7-3.1,8.5c-0.1,0.3-0.3,0.5-0.4,0.8c-0.1,0-0.1,0-0.2,0c0-0.3,0-0.5,0-0.8 c0.1-1.6-0.1-3-0.3-4.5c-0.3-2.2-0.7-4.3-0.9-6.5C1268.3,14.5,1268.2,13.6,1268.3,12.7L1268.3,12.7z M1253.2,17.3 c0.2-0.2,0.5-0.4,0.7-0.5c3.8-1.9,7.6-4,11.3-6.3c0.2-0.2,0.5-0.3,0.7-0.4c0.3,0.1,0.2,0.4,0.2,0.6c-0.4,3-0.1,5.7,0.5,8.2 c0.3,1.2,0.5,2.3,0.8,3.5c0.9,3.3,0.7,7,0,10.8c-0.2,1-0.6,2-1,3c-1.6,3.9-3.3,7.8-5.1,11.7c-1.5,3.1-3.1,6.1-4.9,9 c-1.4,2.3-2.8,4.5-4.3,6.7c-0.2,0.4-0.5,0.7-0.8,1c-0.1,0-0.2,0-0.2-0.1c0-0.3,0-0.6,0.1-0.9c0.2-1.3,0.4-2.5,0.6-3.8 c1-5.8,1-11.3,0.1-16.6c-0.3-2.1-0.6-4.3-0.9-6.5c-0.3-2.2-0.3-4.5,0-6.8c0.5-3.3,1-6.6,1.6-10 C1252.8,19.1,1253,18.2,1253.2,17.3L1253.2,17.3z M1241.3,22.3c0.1-0.1,0.3-0.2,0.5-0.3c3-1.3,6-2.5,9.1-3.8c0.1,0,0.2,0,0.3,0.1 c-0.1,0.2-0.1,0.4-0.2,0.6c-2.8,7.2-3.8,14.1-2.4,20.5c0.2,1.1,0.5,2.2,0.8,3.2c0.3,1.4,0.7,2.7,1,4.1c0.9,3.5,0.9,7.2,0.3,11.1 c-0.5,3.1-1.1,6.2-1.7,9.3c-0.1,0.5-0.3,1-0.7,1.4c-1.3,1.5-2.6,3-3.9,4.4c-2.8,2.9-5.5,5.7-8.3,8.5c-0.2,0.2-0.4,0.4-0.9,0.8 c0.1-0.7,0.2-1.1,0.3-1.4c0.3-1.6,0.6-3.3,0.8-4.9c0.6-4.7,1.5-9.4,2.6-14.2c1.1-4.5,1.5-8.9,1.4-13.2c-0.1-2.1-0.2-4.2-0.4-6.3 c-0.2-2.9-0.5-5.7-0.4-8.7c0-2.4,0.3-4.9,0.9-7.4C1240.7,24.9,1241,23.6,1241.3,22.3L1241.3,22.3z M1236.6,24 c1-0.5,1.9-0.8,2.9-1.1c-0.1,0.4-0.1,0.7-0.2,1c-1.6,4.2-2.3,8.2-2.2,12.2c0.1,2.4,0.2,4.7,0.3,7.1c0.1,2.5,0.3,4.9,0.3,7.4 c0.1,3.4-0.3,6.8-0.9,10.3c-0.7,3.6-1.3,7.3-1.9,10.9c-0.3,2.1-0.5,4.3-0.8,6.4c-0.2,1.9-0.7,3.7-1.4,5.6c0,0,0,0.1,0,0.1 c-0.2,1.4-1,2.4-2,3.4c-0.6,0.6-1.2,1.3-1.8,1.9c-0.1,0.1-0.2,0.1-0.4,0.2c0.1-0.5,0.1-0.9,0.1-1.3c0.5-2.9,0.8-5.9,0.8-8.8 c0.1-4.5,0.8-9.1,1.8-13.8c1-4.3,1.8-8.6,2.3-12.9c0.3-2.7,0.4-5.3,0.4-7.9c0-1.6,0-3.3,0-4.9c0-4.8,0.9-9.8,2.2-14.8 C1236.4,24.7,1236.5,24.3,1236.6,24L1236.6,24z M1210.7,33.3c0-0.1,0.1-0.3,0.2-0.4c2.6-1.3,21.3-7.8,24-8.2c0.2,0.2,0,0.5,0,0.8 c-1.4,4.4-2,8.7-2.1,12.9c0,1.2-0.1,2.5-0.1,3.7c0.1,6.8-0.8,13.7-2.4,20.6c-0.4,1.6-0.7,3.1-1.1,4.7c-0.7,3.2-1.1,6.4-1.3,9.5 c0,0.7-0.1,1.4-0.1,2.2c-0.1,3.7-0.5,7.4-1.4,11.1c-0.1,0.5-0.3,1-0.3,1.5c0,0.7-0.4,1.3-0.8,1.8c-1.5,1.7-2.9,3.5-4.4,5.3 c-3,3.8-5.8,7.7-8.2,11.7c-0.1,0.2-0.3,0.3-0.4,0.5c-0.1,0-0.2,0-0.2-0.1c0-0.2,0-0.4,0-0.6c0.4-2.9,0.3-5.7,0.1-8.5 c-0.3-3.3-0.9-6.4-1.8-9.5c-0.6-2-1.1-4-1.7-6c-2.7-9.1-3.6-18.8-2.6-29.1c0.7-7.5,2.1-15.1,4.3-22.8 C1210.4,34,1210.6,33.6,1210.7,33.3L1210.7,33.3z M1184.7,48c0.1-0.8,0.2-1.7,0.4-2.6c1.4-0.9,2.9-1.7,4.4-2.5 c6-3.2,12-6.2,18.2-8.7c0.2-0.1,0.4-0.1,0.5-0.1c0.3,0.3,0.1,0.5,0,0.8c-1.6,4.2-2.5,8.5-3.4,12.7c-1.7,8.6-2.4,17-1.6,25.2 c0.5,4.4,1.2,8.7,2.4,12.9c0.7,2.6,1.4,5.1,2.1,7.7c1.1,4.3,1.9,8.8,2.2,13.4c0.2,2.7,0,5.5-0.7,8.2c-0.1,0.4-0.2,0.9-0.3,1.3 c-0.1,0.8-0.4,1.5-0.7,2.2c-1.4,3-2.7,5.9-4,8.9c-0.6,1.3-1.1,2.6-2,3.9c0-0.2-0.1-0.5-0.1-0.7c-0.2-5.4-1-10.6-2.8-15.5 c-1.1-3.1-2.2-6.1-3.3-9.2c-1.3-3.6-2.7-7.3-3.9-11c-0.6-1.7-1-3.4-1.4-5.2c-0.6-2.5-0.8-5.2-0.6-7.9c0.1-1.7,0.3-3.4,0.4-5.2 c0.1-1.7,0.2-3.4,0.2-5c0-3.1-0.5-6-1.7-8.7c-0.6-1.3-1.1-2.5-1.7-3.8c-0.9-2-1.7-4-2.4-6.1C1184.5,51.3,1184.5,49.7,1184.7,48 L1184.7,48z M1177.8,79.1c0.1-1.9,0.4-3.8,0.8-5.7c1.2-4.8,1.4-9.5,0.8-14c-0.4-3-0.7-6-1-8.9c0-0.3,0-0.7-0.1-1 c1-0.8,2.2-1.6,3.6-2.2c0,0.2,0.1,0.4,0.1,0.6c-0.4,2.9,0,5.5,0.9,8c0.7,1.7,1.4,3.4,2.1,5.1c0.5,1.1,1,2.2,1.5,3.4 c0.8,1.8,1.1,3.8,1.2,5.9c0,2.2-0.2,4.4-0.4,6.6c-0.2,1.5-0.3,3-0.4,4.5c-0.2,2.7,0.1,5.4,0.6,7.9c0.8,3.5,1.9,6.9,3.1,10.2 c1.1,2.8,2.2,5.7,3.3,8.5c1.1,3,2.3,5.9,3.3,8.9c1.7,5,2.6,10.2,2.9,15.6c0,0.8,0.1,1.5,0.2,2.3c0,0.3,0,0.7-0.1,1 c-0.8,1.4-1.6,2.9-2.4,4.3c-0.1,0.1-0.2,0.1-0.4,0.3c0-0.3-0.1-0.5-0.1-0.8c0.2-4.9-0.8-9.4-2.8-13.7c-0.7-1.5-1.5-3-2.3-4.5 c-0.7-1.4-1.4-2.8-2-4.2c-0.9-1.9-1.4-3.9-1.7-6c-0.2-1.3-0.3-2.7-0.5-4c-0.1-1-0.3-1.9-0.4-2.9c-0.4-3-1.4-5.7-2.9-8.1 c-1.1-1.8-2.3-3.6-3.4-5.3c-0.9-1.4-1.8-2.8-2.4-4.4C1178,84.2,1177.6,81.7,1177.8,79.1L1177.8,79.1z M1153.4,67.7 c4-3.6,8.2-7.1,12.7-10.3c2.8-2.1,5.7-4,8.7-5.9c0.4-0.3,0.8-0.7,1.4-0.6c0.1,0.3,0.1,0.5,0.2,0.8c0.3,3.7,0.6,7.5,0.9,11.2 c0.2,2.8-0.1,5.8-0.7,8.7c-0.3,1.4-0.5,2.7-0.8,4.1c-1.2,5.9-0.2,11.1,2.9,15.6c1,1.5,2,3,3,4.5c2.9,4.5,3.5,6.1,4.2,11.6 c0.2,1.3,0.3,2.5,0.4,3.8c0.3,2.4,0.9,4.7,2,6.9c0.7,1.5,1.6,3.1,2.4,4.6c0.7,1.4,1.5,2.7,2.2,4.1c2.4,4.7,3.4,9.9,3.2,15.3 c0,0.8-0.2,1.5-0.7,2.2c-3.5,5.2-7.5,9.8-11.9,14.1c-2.2,2.2-4.5,4.2-6.7,6.3c-0.3,0.3-0.7,0.5-1.1,0.9c-0.2-0.2-0.4-0.3-0.5-0.5 c-1.1-1.3-1.9-2.8-2.5-4.3c-2.9-6.8-4.3-14-4.5-21.5c-0.1-3,0.2-6,0.6-9c0.2-1.8,0.5-3.5,0.6-5.3c0.4-5.8-0.2-11.4-2.2-16.7 c-0.5-1.5-1.2-2.9-1.9-4.2c-1.8-3.6-3.7-7.1-5.5-10.6c-2.3-4.4-4-9.1-5.1-14.1c-0.3-1.3-0.6-2.6-0.9-3.9 c-0.5-1.9-0.8-3.8-0.9-5.8C1152.6,68.7,1152.8,68.3,1153.4,67.7L1153.4,67.7z M1164,160.8c-1.3-2.4-2.8-4.7-4.5-6.9 c-2.2-2.9-4.4-5.8-6.4-8.9c-0.9-1.4-1.8-2.8-2.6-4.3c-3.3-5.7-5.4-11.8-6.2-18.4c-0.8-6.4-1.3-12.9-1.3-19.6c0-1.2,0-2.4,0-3.6 c0-3.2-0.2-6.4-0.7-9.6c-0.4-2.8-0.7-5.5-0.8-8.4c0-0.8,0.2-1.4,0.8-2.1c2.2-2.4,4.4-4.9,6.7-7.2c0.4-0.4,0.8-0.7,1.3-1.2 c0.1,0.3,0.2,0.5,0.2,0.7c-0.2,2.6,0.3,5.1,0.8,7.5c1.3,6.8,3.8,13,7,19c1.2,2.3,2.4,4.6,3.7,6.9c3.9,7.3,5.1,15.3,3.8,23.8 c-0.1,1-0.3,1.9-0.4,2.9c-0.6,3.6-0.8,7.1-0.5,10.6c0.2,2.8,0.5,5.5,0.8,8.2c0.2,2.1,0.7,4.2,1.4,6.2c0.7,2,1.5,4,2.3,6 c0.7,1.8,1.8,3.3,3.5,4.3c0.1,0.1,0.2,0.2,0.5,0.5c-1.5,1.2-3,2.4-4.5,3.4c-0.5-0.1-0.5-0.5-0.6-0.8 C1167.1,166.7,1165.6,163.7,1164,160.8L1164,160.8z M1282.4,163.6c-1.4,4.1-2.9,8-4.7,11.8c-1.1,2.2-2.1,4.5-3.2,6.7 c-0.3,0.6-0.6,1.2-0.9,1.9c-0.3,0-0.5,0-0.7-0.1c-1.9-0.3-3.9-0.2-5.8,0c-3.5,0.4-7,0.9-10.6,1.6c-7.1,1.4-14.3,2.2-21.7,2.6 c-5,0.2-10.1,0.4-15.3,0.5c-1.5,0-3,0-4.6-0.1c-4.1-0.1-8.1-0.8-12.1-1.7c-4.9-1.2-9.8-2.6-14.7-4.1c-1.8-0.5-3.6-1.2-5.4-1.8 c-2.9-1-5.8-2.1-8.7-3.2c-1.9-0.7-3.9-1.2-6-1.4c-0.2,0-0.3-0.1-0.5-0.1c0,0-0.1-0.1-0.1-0.1c0.1-0.4,0.5-0.5,0.8-0.7 c2.5-1.9,5-3.7,7.5-5.7c1.6-1.2,3-2.5,4.5-3.8c0.6-0.6,1.3-0.9,2.1-1.2c2.5-0.7,5-1.4,7.5-1.8c5.5-1,11-1.8,16.5-2.3 c5.8-0.5,11.4-0.6,16.9-0.1c9,0.8,17.9,0.1,26.6-1.7c2.4-0.5,4.8-1,7.2-1.4c5.2-0.9,10.2-1.3,15.2-0.9c3.6,0.2,7,1.3,10.1,3 c0.3,0.2,0.7,0.4,1,0.6C1283.2,161.3,1282.8,162.5,1282.4,163.6L1282.4,163.6z M1283.7,158.1c-0.2-0.1-0.5-0.2-0.8-0.4 c-1.8-1.2-3.8-1.9-5.8-2.5c-3.2-1-6.5-1.2-9.9-1.2c-4.9,0-9.8,0.7-14.8,1.5c-2.5,0.4-5,0.9-7.6,1.3c-7.1,1.1-14.3,1.4-21.6,0.9 c-8.6-0.7-17.5,0.1-26.5,1.8c-2.5,0.5-5,1-7.4,1.5c-1.3,0.3-2.5,0.6-3.8,1c-0.3,0.1-0.6,0.1-0.9,0.2c0-0.1-0.1-0.1-0.1-0.2 c0.7-0.8,1.3-1.5,2.3-1.9c4.1-1.6,8.2-2.7,12.4-3.6c6.7-1.4,13.4-2.3,20-2.8c4.1-0.3,8.1-0.5,12.1-0.8c3.1-0.3,6.3-0.6,9.3-1 c6-0.8,11.8-2.4,17.5-4.2c4.3-1.3,8.6-3,12.8-4.5c3.7-1.3,7.4-2.7,11.1-4.3c1.1-0.4,2.1-0.7,3.2-1.1c0.1,0,0.3,0,0.4,0 C1285.9,141.9,1284.9,155.7,1283.7,158.1L1283.7,158.1z M1285.9,136.3c-0.1,0.1-0.2,0.2-0.3,0.2c-1.7,0.1-3.4,0.7-5.1,1.4 c-6,2.3-12.1,4.3-18.2,6.4c-7,2.3-14.1,4.2-21.5,5.2c-5,0.7-10.2,1.1-15.3,1.4c-6.4,0.4-12.9,0.9-19.4,2.1 c-3.4,0.6-6.8,1.2-10.1,2.2c-1.9,0.5-3.8,1.2-5.7,1.8c-0.3,0.1-0.5,0.1-0.9,0.2c0.1-0.3,0.2-0.4,0.3-0.6c1.4-1.7,2.8-3.4,4.3-5.1 c0.2-0.3,0.6-0.5,0.9-0.7c4.3-1.9,8.8-3.4,13.3-3.9c3.9-0.4,7.8-0.7,11.7-0.8c5.3-0.2,10.5-0.3,15.6-0.7c8.6-0.6,17-1.7,25.2-3.5 c2.7-0.6,5.5-1.2,8.2-2c3.6-1.1,7.1-2.6,10.6-4.2c2-0.9,4-1.8,6-2.4c0.2-0.1,0.4-0.1,0.6-0.1c0,0.4,0,0.8,0,1.1 C1286,135,1286,135.7,1285.9,136.3L1285.9,136.3z M1286.1,131.2c0,0.2-0.1,0.4-0.1,0.7c-1.8-0.1-3.6,0.6-5.4,1.3 c-2.8,1.1-5.6,2.3-8.5,3.2c-3,0.9-6,1.7-9.1,2.3c-4.8,0.9-9.7,1.9-14.7,2.4c-7.5,0.8-15.1,1.3-22.9,1.6 c-4.2,0.2-8.5,0.4-12.8,0.7c-2.2,0.2-4.5,0.5-6.8,0.9c-2.6,0.4-5.2,1.2-7.7,2.3c-0.2,0.1-0.5,0.2-0.7,0.3c-0.3-0.3,0-0.5,0.1-0.7 c1-1.7,2.1-3.3,3.1-5.1c1.2-2.2,2.4-4.3,3.5-6.6c1.1-2.2,2-4.5,3-6.7c0.1-0.2,0.2-0.4,0.3-0.7c0.7,0.1,1.2,0.1,1.7,0.2 c3,0.2,6,0.1,9.1-0.4c2.3-0.4,4.5-1.1,6.7-2c1.5-0.7,3-1.3,4.6-2c3.7-1.6,7.4-2.2,11.1-2c2.8,0.2,5.5,0.5,8.2,0.9 c6.1,0.9,12.1,1.4,18.2,1.2c4.9-0.1,9.9-0.8,14.7-1.6c1.3-0.2,2.5-0.4,3.8-0.6c0.2,0,0.4-0.1,0.7-0.1c0,0.2,0.1,0.4,0.1,0.6 C1286.2,124.7,1286.2,128,1286.1,131.2L1286.1,131.2z M1286.4,118.5c-0.2,0.1-0.4,0.2-0.6,0.2c-5.1,0.5-10.3,1.2-15.6,1.6 c-6.3,0.5-12.5,0-18.8-0.8c-3-0.4-6.1-0.8-9.1-1.1c-1.2-0.1-2.4-0.1-3.6-0.1c-2.7,0-5.4,0.6-8.1,1.6c-1.6,0.6-3.2,1.3-4.8,1.9 c-1.3,0.5-2.6,1.1-3.9,1.5c-1.7,0.6-3.5,1-5.3,1.1c-1.3,0.1-2.7,0.1-4,0.1c-1.3,0.1-2.6,0.2-3.9,0.3c-0.2-0.2-0.1-0.4,0-0.6 c0.5-1.2,1-2.4,1.6-3.6c0.2-0.5,0.5-0.9,0.9-1.1c5-3.3,10-6.5,15.5-8.4c3.1-1.1,6.1-2,9.2-2.6c2.4-0.5,4.8-1,7.2-1.4 c9.5-1.7,18.8-3.5,28-5.8c4.5-1.1,9-2.2,13.5-3.7c0.5-0.2,1-0.3,1.5-0.5c0.4-0.1,0.8-0.2,1.4-0.4 C1286.9,104.1,1286.6,111.3,1286.4,118.5z M1287.4,95.1c-0.2,0.1-0.3,0.1-0.5,0.2c-2.2,0.6-4.5,1.2-6.8,1.8 c-9.4,2.5-19,4.4-28.8,6c-2.8,0.5-5.5,0.8-8.3,1.2c-3.7,0.5-7.5,1.2-11.3,2.2c-4.5,1.2-9,2.9-13.2,5.5c-1.6,1-3.1,2.1-4.7,3.1 c-0.3,0.2-0.5,0.3-1,0.7c0.1-0.7,0.3-1.1,0.6-1.5c1.9-3.3,3.9-6.6,6.1-9.8c0.5-0.6,1-1.1,1.7-1.3c3.1-1.2,6.3-1.9,9.5-2.4 c3.7-0.5,7.3-0.8,11-1.1c2.9-0.2,5.8-0.4,8.7-0.7c4.9-0.4,9.8-1.3,14.6-2.6c4.6-1.2,9.2-2.4,13.7-3.6c2.8-0.7,5.6-1.2,8.3-1.9 c0.2-0.1,0.4,0,0.7,0C1287.7,92.4,1287.6,93.8,1287.4,95.1L1287.4,95.1z M1292.1,61.7c-0.4,2.2-0.7,4.5-1.1,6.7 c-1.1,6.5-2.2,12.9-2.8,19.3c0,0.3-0.1,0.6-0.2,0.9c-0.2,0.1-0.4,0.2-0.6,0.2c-6,0.8-12,2.5-18.2,3.9c-2,0.5-4,0.9-6,1.4 c-5.4,1.4-10.8,2.1-16.3,2.5c-2.9,0.2-5.9,0.4-8.9,0.6c-2.2,0.2-4.5,0.4-6.8,0.7c-2.4,0.3-4.8,0.8-7.2,1.6 c-0.2,0.1-0.5,0.1-0.8,0.1c0.2-0.4,0.3-0.6,0.5-0.8c2.3-2.9,4.7-5.7,7.2-8.4c0.4-0.4,0.9-0.7,1.4-0.9c5.4-2.4,10.8-4.6,16.2-6.5 c4.9-1.7,9.6-3.9,14.2-6.7c3.3-2,6.6-4,9.9-6c4.6-2.8,9.3-5.3,14-7.5c1.7-0.8,3.5-1.5,5.2-2.1 C1292.2,61.1,1292.1,61.4,1292.1,61.7L1292.1,61.7z M1293.3,50.8c-0.3,4.3-0.6,6.7-1,8c-0.5,0.1-1,0.2-1.5,0.4 c-6.4,2-12.9,4.7-19.1,8.7c-3.1,2-6.2,4-9.3,5.9c-0.4,0.3-0.9,0.5-1.3,0.8c-4.1,2.7-8.4,4.9-12.9,6.4c-1.3,0.5-2.6,0.9-3.8,1.4 c-2.7,0.9-5.3,2-7.9,3.2c-0.4,0.2-0.7,0.3-1.3,0.5c0.4-0.5,0.5-0.8,0.8-1c1-1,2-2.1,3-3.1c0.5-0.6,1.1-0.9,1.8-0.9 c1.1,0.1,2.2-0.4,3.2-0.9c1.9-0.9,3.8-1.9,5.7-2.8c4.5-2.2,8.8-4.8,12.9-8c2.1-1.6,4.2-3.3,6.3-4.9c3.6-2.7,7.2-5.4,10.7-8.1 c2.6-1.9,5.2-3.6,7.9-5.1c1.7-0.9,3.3-1.8,5-2.7c0.3-0.2,0.6-0.3,1-0.4C1293.5,49.2,1293.3,50,1293.3,50.8L1293.3,50.8z M1293.4,46.3c-0.2,0.1-0.4,0.2-0.6,0.3c-4.7,1.7-9.3,4.2-13.8,7.4c-2.6,1.9-5.2,3.7-7.8,5.6c-3.1,2.3-6.3,4.7-9.4,7.1 c-5,3.8-10.2,7.1-15.7,9.8c-0.7,0.3-1.4,0.7-2.1,1.1c-0.2,0.1-0.4,0.1-0.7,0.2c0.3-0.6,0.7-0.9,1-1.2c2.3-2.4,4.6-4.9,6.6-7.6 c2.4-3.1,4.6-6.4,6.7-9.8c0.9-1.5,1.8-3,2.7-4.5c0.2-0.3,0.4-0.6,0.7-0.8c2.2-1.4,4.5-2.8,6.7-4.2c1-0.7,2.1-1.3,3.1-2 c4-2.6,8-4.6,12.2-6.1c2.9-1.1,5.8-2.2,8.7-3.3c0.5-0.2,1-0.5,1.6-0.7c0.3,0.4,0.2,1,0.2,1.5C1293.7,43.4,1293.7,45,1293.4,46.3 L1293.4,46.3z"></path> <path class="st0" d="M1033.3,202.7c-0.5-0.9-0.9-1.7-1.6-2.5c-0.4-0.4-0.7-0.9-1.1-1.3c-2.3-2.8-4.9-5.2-7.8-7.2 c-4.9-3.4-10-6.2-15.3-8.5c-3.2-1.4-6.3-2.7-9.5-4c-5.1-2.2-10-4.8-14.9-7.9c-8.8-5.7-16.7-13.1-24.1-21.7 c-3.6-4.2-7.1-8.5-10.1-13.5c-0.2-0.3-0.3-0.7-0.8-0.7c-0.1,0.2-0.2,0.4-0.3,0.6c-2.3,8.2-4.1,16.7-5.7,25.3 c-0.4,2.2-0.8,4.3-1.1,6.5c0.8,0.9,1.6,1.7,2.3,2.5c1.5,1.6,3.3,2.9,5.2,3.6c2.6,1,5.3,1.9,8,2.5c1.7,0.4,3.5,0.8,5.2,1.3 c3.6,1,7,2.7,10.1,5.2c1.7,1.3,3.3,2.8,4.9,4.3c1.6,1.5,3.2,3.1,4.9,4.5c2.6,2.3,5.4,4.3,8.5,5.7c2.1,1,4.2,2,6.3,2.8 c4.7,1.7,9.4,3.2,14.1,4.8c4,1.3,7.9,2.6,11.9,4c5.9,2,11.4,5,16.5,8.7h1.6c-0.5-1.3-1.2-2.5-1.8-3.7 C1037.1,210.2,1035.2,206.5,1033.3,202.7z"></path> <path class="st0" d="M973,103.6c3,2.4,6,4.5,9.1,6.5c2.2,1.5,4.4,3,6.6,4.6c4.5,3.3,8.6,7.3,12.2,11.9c3.9,4.9,7.9,9.6,12.2,14 c1.5,1.5,2.9,3.2,4.3,4.8c0.3,0.3,0.6,0.7,1.2,1.4c0-0.8,0-1.1-0.1-1.5c-0.6-5-1.2-10.1-1.9-15.2c-0.3-2.5-0.9-4.9-1.3-7.4 c-0.1-0.7-0.4-1.3-0.9-1.8c-2.7-3-5.3-6.1-8.1-9.1c-3.4-3.7-7.2-6.7-11.5-8.6c-1.6-0.7-3.3-1.5-4.9-2.2c-1.3-0.6-2.6-1.2-3.9-1.8 c-7.6-3.7-13.7-10.2-18.8-18.8c-0.2-0.3-0.3-0.5-0.5-0.7c-0.2,0.1-0.3,0.2-0.3,0.3c-1.1,4-2.3,8.1-3.5,12.1 c-0.1,0.2-0.1,0.5-0.1,0.7c1.1,1.4,2.2,2.6,3.2,4C968.3,99.4,970.5,101.7,973,103.6L973,103.6z"></path> <path class="st0" d="M974.9,114c1.6,1.3,3.3,2.6,4.9,3.9c2.6,2.1,5.2,4.4,7.7,6.8c4,3.9,7.6,8.2,11.1,12.5 c3.8,4.8,7.9,9.1,12.4,12.8c2.9,2.4,5.6,5,8.2,7.8c0.3,0.4,0.7,0.7,1.2,1.2c0.1-0.4,0.1-0.5,0.1-0.6c-0.2-1.1-0.4-2.2-0.5-3.3 c-0.2-1.8-0.6-3.4-1.8-4.7c0,0-0.1-0.1-0.1-0.2c-1.3-2.2-2.8-4.1-4.5-5.8c-1.9-2-3.9-3.9-5.8-5.9c-3.2-3.4-6.4-7-9.5-10.6 c-3-3.4-6.1-6.6-9.6-9.2c-2.5-1.9-5.1-3.7-7.7-5.5c-2.5-1.8-5-3.5-7.4-5.3c-4.1-3.1-7.6-7-10.5-12c-0.2-0.3-0.4-0.6-0.8-1 c-0.5,1.3-1,2.4-1.2,3.8c0.2,0.4,0.5,0.8,0.7,1.1C965.7,105.3,970,110.2,974.9,114L974.9,114z"></path> <path class="st0" d="M1023.6,174.3c-0.6-2.8-1.2-5.7-1.8-8.6c-0.2-0.9-0.4-1.7-1.2-2.3c-0.5-0.4-0.9-0.9-1.3-1.4 c-3-3.9-6.4-7.2-10-10.3c-0.7-0.6-1.4-1.2-2.1-1.8c-3-2.7-5.9-5.7-8.6-9c-1.3-1.6-2.6-3.2-3.9-4.8c-5.7-7.1-11.9-13.6-18.8-18.9 c-1.2-1-2.4-2-3.6-3c-4.2-3.4-8-7.5-11.3-12.4c-0.2-0.3-0.4-0.7-0.7-0.7c-1.6,3.1-10.1,27.1-10.9,30.7c0.1,0.2,0.1,0.4,0.2,0.5 c0.3,0.4,0.5,0.9,0.8,1.3c6,8.4,12.5,15.9,19.5,22.6c9.6,9.1,20,16,31.4,20.6c2.5,1,5,2,7.4,3.1c3.8,1.6,7.4,3.5,11,5.7 c3,2,5.9,4.2,8.5,6.8c0.2,0.2,0.4,0.4,0.6,0.5c0.1-0.1,0.2-0.1,0.3-0.2c-0.1-0.3-0.1-0.5-0.2-0.8 C1026.7,186.2,1025,180.3,1023.6,174.3L1023.6,174.3z"></path> <path class="st0" d="M989.2,211.6c-2.3-0.2-4.6-0.4-6.9-0.6c-7-0.4-13-3.6-18-9.5c-1.2-1.4-2.3-2.7-3.5-4.1 c-2.5-3-5.1-5.6-8.2-7.7c-4-2.7-8-5.3-12-8c-0.3-0.2-0.7-0.3-1-0.5c-0.5,0.5-0.4,1.2-0.5,1.9c-0.5,4.5-0.8,9-1,13.5 c-0.3,7-0.2,14.1,0.2,21c0,0,0,0,0,0h67.3c-0.5-0.3-1-0.6-1.5-1C998.2,212.9,996.1,212.2,989.2,211.6L989.2,211.6z"></path> <path class="st0" d="M1011.4,208.7c-3.7-1.2-7.5-2.3-11.2-3.5c-4.3-1.4-8.6-3-12.8-5c-3-1.4-5.9-3.3-8.5-5.7 c-1.4-1.3-2.8-2.6-4.2-4c-2-2-4.1-4-6.3-5.7c-2.2-1.6-4.4-2.9-6.9-3.6c-1.5-0.4-3.1-0.8-4.6-1.2c-2.3-0.6-4.6-1.3-6.8-2 c-3.2-1-6.2-2.8-8.8-5.4c-0.2-0.2-0.4-0.3-0.6-0.4c-0.5,1.9-0.7,3.8-0.7,5.4c0.3,0.2,0.7,0.5,1,0.7c3.3,2.1,6.5,4.2,9.8,6.2 c5.1,3.1,9.6,7,13.5,12c1.5,2,3.2,3.7,5,5.4c2.5,2.3,5.3,3.9,8.5,4.7c2.1,0.5,4.2,0.8,6.3,1c2.7,0.3,5.4,0.5,8.1,0.8 c3.7,0.4,7.2,1.6,10.5,3.6c1.1,0.6,2.1,1.3,3.2,1.9c1.5,0.9,3,1.8,4.4,2.7c0.5,0.3,1,0.6,1.4,0.8h22c-3.5-1.9-7.1-3.6-10.8-5 C1019.2,211.2,1015.3,210,1011.4,208.7L1011.4,208.7z"></path> <path class="st0" d="M1047.1,156.6c1.8-3.1,3.7-6.2,5.4-9.4c6.2-11.1,11.9-22.3,16.9-33.8c1.2-2.8,2.4-5.5,3.6-8.3 c0.1-0.2,0.1-0.4,0.2-0.6c-1.2-1.3-2.5-2.5-3.8-3.6c-0.2,0.3-0.4,0.5-0.6,0.8c-1.6,3.3-3.3,6.5-4.8,9.8c-2.5,5.5-4.8,11-7.3,16.6 c-2.6,5.9-5.6,11.5-9.1,16.8c-2.1,3.1-4.2,6.2-6.3,9.3c-2.6,3.8-5.3,7.7-7.7,11.9c-2.1,3.5-3.9,7.3-5.2,11.4 c-0.3,0.9-0.3,1.8,0,2.8c1.4,4.8,3.1,9.5,4.9,14c0.2,0.5,0.4,1.1,1,1.7c0.1-0.7,0.1-1.1,0.1-1.5c0.2-2.4,0.3-4.8,0.6-7.2 c0.8-6.3,2.6-12.2,5.1-17.7C1042.3,165.1,1044.6,160.8,1047.1,156.6L1047.1,156.6z"></path> <path class="st0" d="M1036.6,99.6c-0.7,4.9-1.3,9.8-1.9,14.8c-0.9,6.9-2.5,13.4-4.6,19.7c-2.4,7-4.5,14.2-6.4,21.5 c-0.2,0.7-0.3,1.3-0.2,2.1c0.8,4.7,1.6,9.4,2.7,14c0.1,0.3,0.3,0.7,0.5,1.1c0.2-0.4,0.4-0.7,0.5-1c1.1-3.1,2.5-5.9,4.1-8.6 c1.5-2.5,3.1-5,4.7-7.4c2.1-3.2,4.3-6.3,6.5-9.4c4-5.8,7.6-11.9,10.5-18.4c1.1-2.4,2.3-4.8,3.4-7.2c3.4-7.3,6.6-14.8,10.6-21.4 c0.1-0.2,0.2-0.5,0.2-0.8c-0.3-0.3-0.5-0.6-0.8-0.9c-5.9-5.8-11.5-12-17.1-18.3c-2-2.2-3.9-4.3-5.9-6.4c-0.3-0.3-0.6-0.7-1-0.6 c-0.7,2.2-1.5,4.5-2,6.9C1038.7,86,1037.5,92.7,1036.6,99.6L1036.6,99.6z"></path> <path class="st0" d="M1074,107.6c-0.2,0.6-0.5,1.3-0.7,1.9c-2.1,5.6-4.5,11.1-7,16.5c-5,11-10.6,21.9-16.5,32.8 c-1.5,2.7-2.9,5.5-4.3,8.4c-1.8,3.6-3.4,7.4-4.7,11.4c-2.4,7.1-3.2,14.7-3.9,22.3c-0.1,0.7,0.1,1.3,0.4,1.9 c0.8,1.5,1.6,3,2.4,4.4c0.1,0.2,0.3,0.5,0.6,0.5c0.9-1.4,1.9-2.8,2.8-4.2c1-1.4,2.1-2.8,3.1-4.2c1.3-1.9,2.3-3.9,3.1-6.2 c0.6-1.7,1.1-3.4,1.6-5.1c0.7-2.1,1.2-4.3,1.9-6.4c1.2-3.5,2.8-6.7,4.9-9.4c1-1.2,1.9-2.5,3-3.6c2.8-2.9,5.6-5.6,8.4-8.3 c5.9-5.6,11.3-11.5,15.8-18.2c3.8-5.6,7.3-11.4,10.8-17c0.1-0.2,0.1-0.5,0.2-0.7c-7-6-14-12.1-21.2-18.4 C1074.4,106.6,1074.2,107.1,1074,107.6L1074,107.6z"></path> <path class="st0" d="M1027.7,99c-0.1,3.4-0.1,6.8-0.1,10.2c-0.1,6.7-0.9,13.1-2.3,19.4c-0.6,2.7-1.2,5.3-1.8,8 c-0.3,1.5-0.7,2.9-1.6,4c-0.5,0.6-0.7,1.4-0.6,2.5c0.3,1.8,0.5,3.7,0.8,5.5c0.1,0.4,0.2,0.8,0.4,1.6c0.2-0.8,0.4-1.3,0.5-1.8 c0.9-3.6,1.9-7.1,3.1-10.6c0.6-1.7,1.1-3.3,1.7-5c2-5.7,3.2-11.7,3.8-18.1c0.1-0.7,0.1-1.3,0.2-1.9c0.5-4.7,0.9-9.4,1.4-14.1 c1-9.5,3.4-18.2,6.5-26.2c0.2-0.6,0.5-1.2,0.8-1.8c-1.1-1.5-3.2-3.7-7.3-7.4c-0.8-0.7-1.5-1.5-2.4-1.9c-0.1,0.5-0.3,0.9-0.3,1.3 c-0.4,2.4-0.8,4.8-1.3,7.2c-0.7,3.9-1.1,7.9-1.2,12C1028,87.5,1027.8,93.3,1027.7,99L1027.7,99z"></path> <path class="st0" d="M974.9,57.9c0.9,0.8,1.9,1.5,2.8,2.1c2.4,1.5,4.9,2.9,7.3,4.3c1.6,0.9,3.2,2,4.7,3.3 c0.3,0.2,0.5,0.4,0.8,0.6c0.1-0.1,0.1-0.1,0.2-0.2c-0.2-0.3-0.3-0.7-0.5-1c-2-3.3-4.1-6.6-6-10c-2.1-3.7-4.2-7.4-6.3-11.2 c-1.8-3.3-3.4-6.6-4.8-10.2c-0.1-0.4-0.2-0.8-0.7-0.9c-0.1,0.4-0.2,0.8-0.2,1.2c-0.4,5.7-0.9,11.4-1.3,17.2c0,0.4,0,0.8,0.1,1.2 C972.3,55.5,973.6,56.8,974.9,57.9z"></path> <path class="st0" d="M978.6,89c2.1,2.2,4.4,4.1,6.9,5.5c2.4,1.4,4.8,2.9,7.3,4.3c6,3.4,11.6,7.8,16.6,13.4 c1.1,1.2,2.2,2.4,3.3,3.6c0.3,0.3,0.6,0.6,0.9,0.8c0.1-0.1,0.2-0.1,0.2-0.2c-0.1-0.5-0.2-1.1-0.4-1.6c-1.1-3.2-2.1-6.4-3.3-9.6 c-1.5-4.1-3.2-8.2-5.2-12.1c-2.4-4.9-5-9.7-7.7-14.5c-0.7-1.2-1.3-2.4-2.2-3.4c-3.3-3.7-6.9-6.8-10.9-8.6c-1.4-0.6-2.8-1.3-4.2-2 c-3.1-1.5-6-3.3-8.7-6.1c-0.2-0.2-0.4-0.5-0.8-0.3c-0.1,0.3-0.1,0.6-0.2,1c-0.6,5.6-1.5,11.1-2.7,16.4c-0.1,0.3-0.1,0.7-0.1,1.1 c0.8,0.9,1.6,1.8,2.4,2.7C972.7,82.7,975.6,85.9,978.6,89L978.6,89z"></path> <path class="st0" d="M1012.1,83.1c-0.1,1.6-0.3,3.1-0.5,4.7c-0.4,3.4-0.7,6.7-1.1,10.1c0,0.4,0.1,0.9,0.2,1.3 c0.8,2.1,1.6,4.2,2.4,6.3c1.8,4.8,3.3,9.7,4.5,14.6c1.1,4.2,1.8,8.5,2.3,12.8c0.1,0.6,0.1,1.2,0.4,2c0.2-0.4,0.3-0.6,0.3-0.8 c0.2-1,0.4-2,0.6-2.9c1.7-7.6,2.5-15.5,2.7-23.6c0.1-5,0.2-10.1,0.4-15.1c0.1-4.1,0.3-8.2,0.5-12.3c0.4-7.1,1.6-13.6,3.6-19.7 c0.1-0.3,0.1-0.5,0.2-0.8c-1.1-1.3-2.7-2.6-7.3-6c-0.5-0.4-1-0.9-1.7-1c-0.2,0.7-0.3,1.4-0.6,2.1c-1.2,3.8-2.4,7.6-3.6,11.3 C1014,71.3,1012.7,77,1012.1,83.1L1012.1,83.1z"></path> <path class="st0" d="M978.2,37.9c3.2,6.6,6.8,12.9,10.4,19.1c3.8,6.5,7.6,12.8,11.1,19.3c2.8,5.1,5.5,10.2,7.9,15.5 c0.2,0.5,0.4,1,0.7,1.4c0.1,0.2,0.3,0.3,0.5,0.6c0.1-0.6,0.2-1,0.2-1.4c0.1-1.9,0.3-3.8,0.4-5.7c0.2-4.3,0.6-8.6,1.4-12.6 c1.5-8,3.6-15.5,6.1-22.6c0.1-0.3,0.2-0.7,0.3-1.2c-0.7-0.5-1.3-0.9-2-1.3c-6.1-3.9-12.3-7-18.6-9.3c-6.6-2.4-13.3-4.6-19.9-7.5 c-0.3-0.1-0.6-0.2-1.1-0.3c0.2,0.6,0.2,0.8,0.3,1.1C976.7,34.7,977.4,36.3,978.2,37.9L978.2,37.9z"></path> <path class="st0" d="M1187.4,59c0.6,1.3,1.2,2.5,1.7,3.8c1.2,2.7,1.7,5.6,1.7,8.7c0,1.7-0.1,3.3-0.2,5c-0.1,1.7-0.3,3.4-0.4,5.2 c-0.2,2.7,0,5.4,0.6,7.9c0.4,1.8,0.8,3.5,1.4,5.2c1.2,3.7,2.6,7.3,3.9,11c1.1,3.1,2.2,6.1,3.3,9.2c1.8,4.9,2.6,10.1,2.8,15.5 c0,0.2,0.1,0.5,0.1,0.7c0.9-1.2,1.5-2.6,2-3.9c1.3-2.9,2.6-5.9,4-8.9c0.3-0.7,0.6-1.4,0.7-2.2c0.1-0.4,0.2-0.9,0.3-1.3 c0.6-2.8,0.8-5.5,0.7-8.2c-0.3-4.6-1.1-9.1-2.2-13.4c-0.7-2.6-1.4-5.2-2.1-7.7c-1.2-4.2-1.9-8.4-2.4-12.9 c-0.8-8.1-0.1-16.5,1.6-25.2c0.8-4.2,1.8-8.4,3.4-12.7c0.1-0.2,0.3-0.5,0-0.8c-0.1,0-0.3,0-0.5,0.1c-6.1,2.6-12.2,5.5-18.2,8.7 c-1.5,0.8-3,1.6-4.4,2.5c-0.1,0.9-0.3,1.8-0.4,2.6c-0.2,1.7-0.2,3.4,0.3,4.9C1185.7,55,1186.4,57,1187.4,59L1187.4,59z"></path> <path class="st0" d="M1208.6,86.3c0.6,2,1.2,4,1.7,6c0.9,3.1,1.5,6.2,1.8,9.5c0.3,2.8,0.3,5.6-0.1,8.5c0,0.2,0,0.4,0,0.6 c0.1,0,0.2,0,0.2,0.1c0.1-0.2,0.3-0.3,0.4-0.5c2.5-4,5.2-8,8.2-11.7c1.4-1.8,2.9-3.5,4.4-5.3c0.5-0.6,0.9-1.1,0.8-1.8 c0-0.5,0.1-1,0.3-1.5c0.9-3.7,1.3-7.4,1.4-11.1c0-0.7,0.1-1.4,0.1-2.2c0.2-3.2,0.6-6.3,1.3-9.5c0.3-1.6,0.7-3.1,1.1-4.7 c1.6-6.9,2.5-13.8,2.4-20.6c0-1.2,0-2.5,0.1-3.7c0.1-4.2,0.7-8.5,2.1-12.9c0.1-0.3,0.3-0.6,0-0.8c-2.7,0.5-21.4,6.9-24,8.2 c-0.1,0.1-0.2,0.2-0.2,0.4c-0.1,0.4-0.3,0.7-0.4,1.1c-2.2,7.7-3.7,15.3-4.3,22.8C1205.1,67.5,1205.9,77.1,1208.6,86.3 L1208.6,86.3z"></path> <path class="st0" d="M1154.5,79.1c1,5,2.8,9.7,5.1,14.1c1.8,3.6,3.7,7.1,5.5,10.6c0.7,1.4,1.4,2.8,1.9,4.2 c2,5.3,2.6,10.9,2.2,16.7c-0.1,1.8-0.4,3.5-0.6,5.3c-0.4,3-0.7,6-0.6,9c0.2,7.5,1.6,14.7,4.5,21.5c0.7,1.5,1.4,3,2.5,4.3 c0.1,0.2,0.3,0.3,0.5,0.5c0.4-0.3,0.8-0.6,1.1-0.9c2.2-2.1,4.5-4.1,6.7-6.3c4.4-4.3,8.4-9,11.9-14.1c0.5-0.7,0.7-1.4,0.7-2.2 c0.2-5.5-0.8-10.6-3.2-15.3c-0.7-1.4-1.5-2.7-2.2-4.1c-0.8-1.5-1.6-3-2.4-4.6c-1-2.1-1.7-4.5-2-6.9c-0.1-1.3-0.3-2.5-0.4-3.8 c-0.7-5.5-1.3-7.1-4.2-11.6c-1-1.5-2-3-3-4.5c-3.1-4.5-4.1-9.7-2.9-15.6c0.3-1.4,0.5-2.7,0.8-4.1c0.6-2.9,0.9-5.8,0.7-8.7 c-0.3-3.7-0.6-7.4-0.9-11.2c0-0.3-0.1-0.6-0.2-0.8c-0.6,0-1,0.4-1.4,0.6c-3,1.9-5.8,3.9-8.7,5.9c-4.4,3.2-8.7,6.7-12.7,10.3 c-0.6,0.5-0.8,1-0.8,1.7c0.2,2,0.5,3.9,0.9,5.8C1153.9,76.5,1154.2,77.8,1154.5,79.1L1154.5,79.1z"></path> <path class="st0" d="M1234.1,44.7c0,2.6-0.2,5.3-0.4,7.9c-0.4,4.3-1.3,8.6-2.3,12.9c-1.1,4.7-1.7,9.2-1.8,13.8 c0,2.9-0.3,5.8-0.8,8.8c-0.1,0.4-0.1,0.8-0.1,1.3c0.3-0.2,0.4-0.2,0.4-0.2c0.6-0.6,1.2-1.3,1.8-1.9c1-1,1.8-2,2-3.4 c0,0,0-0.1,0-0.1c0.7-1.8,1.1-3.7,1.4-5.6c0.3-2.1,0.5-4.3,0.8-6.4c0.6-3.6,1.2-7.2,1.9-10.9c0.7-3.5,1-6.9,0.9-10.3 c-0.1-2.5-0.2-4.9-0.3-7.4c-0.1-2.4-0.3-4.7-0.3-7.1c-0.1-4,0.6-8,2.2-12.2c0.1-0.3,0.1-0.5,0.2-1c-1,0.3-1.9,0.6-2.9,1.1 c-0.1,0.3-0.3,0.7-0.3,1c-1.4,5-2.3,10-2.2,14.8C1234.1,41.4,1234,43.1,1234.1,44.7L1234.1,44.7z"></path> <path class="st0" d="M1181.5,90.8c1.2,1.8,2.3,3.5,3.4,5.3c1.5,2.4,2.5,5.2,2.9,8.1c0.1,1,0.3,1.9,0.4,2.9c0.2,1.3,0.3,2.7,0.5,4 c0.3,2.1,0.8,4.1,1.7,6c0.7,1.4,1.4,2.8,2,4.2c0.8,1.5,1.6,3,2.3,4.5c2,4.3,3,8.8,2.8,13.7c0,0.2,0,0.5,0.1,0.8 c0.2-0.1,0.4-0.2,0.4-0.3c0.8-1.4,1.6-2.9,2.4-4.3c0.2-0.3,0.2-0.7,0.1-1c-0.1-0.7-0.2-1.5-0.2-2.3c-0.3-5.4-1.3-10.6-2.9-15.6 c-1-3-2.1-6-3.3-8.9c-1.1-2.8-2.2-5.7-3.3-8.5c-1.3-3.3-2.3-6.7-3.1-10.2c-0.6-2.5-0.8-5.2-0.6-7.9c0.1-1.5,0.3-3,0.4-4.5 c0.2-2.2,0.5-4.4,0.4-6.6c0-2.1-0.4-4.1-1.2-5.9c-0.5-1.1-1-2.2-1.5-3.4c-0.7-1.7-1.4-3.4-2.1-5.1c-1-2.4-1.3-5.1-0.9-8 c0-0.2,0-0.4-0.1-0.6c-1.4,0.6-2.6,1.4-3.6,2.2c0,0.3,0,0.7,0.1,1c0.3,3,0.6,6,1,8.9c0.6,4.6,0.3,9.2-0.8,14 c-0.5,1.9-0.7,3.8-0.8,5.7c-0.2,2.7,0.2,5.1,1.3,7.4C1179.7,88,1180.6,89.4,1181.5,90.8L1181.5,90.8z"></path> <path class="st0" d="M1251.1,36.8c0.3,2.2,0.6,4.4,0.9,6.5c0.9,5.3,0.9,10.8-0.1,16.6c-0.2,1.3-0.4,2.5-0.6,3.8 c-0.1,0.3-0.1,0.6-0.1,0.9c0.1,0,0.2,0,0.2,0.1c0.3-0.3,0.6-0.7,0.8-1c1.4-2.2,2.9-4.4,4.3-6.7c1.8-2.9,3.4-5.9,4.9-9 c1.8-3.8,3.5-7.7,5.1-11.7c0.4-1,0.9-2,1-3c0.7-3.8,0.8-7.5,0-10.8c-0.3-1.2-0.6-2.3-0.8-3.5c-0.6-2.6-0.9-5.3-0.5-8.2 c0-0.2,0.1-0.5-0.2-0.6c-0.2,0.1-0.4,0.2-0.7,0.4c-3.7,2.3-7.5,4.4-11.3,6.3c-0.2,0.1-0.5,0.3-0.7,0.5c-0.2,1-0.4,1.9-0.5,2.8 c-0.6,3.3-1.1,6.7-1.6,10C1250.7,32.4,1250.8,34.7,1251.1,36.8L1251.1,36.8z"></path> <path class="st0" d="M1269.1,36.7c-1.8,4.2-3.6,8.3-5.6,12.3c-0.2,0.4-0.4,0.7-0.5,1.1c-0.1,0.2-0.1,0.3-0.1,0.6 c0.4-0.2,0.7-0.4,0.9-0.5c1.2-0.8,2.4-1.7,3.6-2.5c2.7-1.9,5.5-3.8,8.4-5.3c5.6-2.9,11.2-5.3,16.7-7.2c0.3-0.1,0.5-0.2,0.9-0.4 c0-0.7-0.1-1.3-0.1-1.8c-0.6-5.6-1.7-10.9-3.4-15.8c-1.7-5.2-3.6-10.3-5.1-15.7c-0.1-0.2-0.2-0.4-0.3-0.8 c-0.3,0.4-0.4,0.5-0.5,0.7c-0.6,1.2-1.3,2.5-1.9,3.7c-2.5,5.2-4.6,10.4-6.6,15.6C1273.3,26,1271.3,31.4,1269.1,36.7L1269.1,36.7z "></path> <path class="st0" d="M1293.3,37.5c-0.5,0.2-1,0.5-1.6,0.7c-2.9,1.1-5.8,2.2-8.7,3.3c-4.1,1.5-8.2,3.5-12.2,6.1 c-1,0.7-2.1,1.3-3.1,2c-2.2,1.4-4.5,2.8-6.7,4.2c-0.3,0.2-0.5,0.5-0.7,0.8c-0.9,1.5-1.8,3-2.7,4.5c-2.1,3.4-4.3,6.7-6.7,9.8 c-2.1,2.7-4.3,5.2-6.6,7.6c-0.3,0.3-0.7,0.6-1,1.2c0.3-0.1,0.5-0.1,0.7-0.2c0.7-0.3,1.4-0.7,2.1-1.1c5.5-2.6,10.6-6,15.7-9.8 c3.1-2.4,6.3-4.8,9.4-7.1c2.6-1.9,5.2-3.8,7.8-5.6c4.5-3.2,9.1-5.6,13.8-7.4c0.2-0.1,0.4-0.2,0.6-0.3c0.3-1.3,0.3-3,0.1-7.3 C1293.5,38.5,1293.6,37.9,1293.3,37.5L1293.3,37.5z"></path> <path class="st0" d="M1269.3,22c0.2,1.4,0.4,2.9,0.3,4.5c0,0.3,0,0.5,0,0.8c0.1,0,0.1,0,0.2,0c0.1-0.3,0.3-0.5,0.4-0.8 c1-2.8,2-5.7,3.1-8.5c1.2-3.1,2.5-6.2,3.8-9.2c1.1-2.7,2.4-5.3,3.9-7.8c0.1-0.3,0.4-0.5,0.2-0.9c-0.3,0.1-0.5,0.3-0.8,0.4 c-3.7,2.5-7.4,5-11.1,7.5c-0.2,0.2-0.4,0.4-0.7,0.6c-0.1,1.4-0.3,2.8-0.3,4.2c0,0.9,0,1.9,0.1,2.7 C1268.7,17.6,1269,19.8,1269.3,22L1269.3,22z"></path> <path class="st0" d="M1239.9,42.3c0.2,2.1,0.3,4.2,0.4,6.3c0.2,4.3-0.3,8.7-1.4,13.2c-1.1,4.8-2,9.5-2.6,14.2 c-0.2,1.6-0.6,3.3-0.8,4.9c-0.1,0.4-0.1,0.7-0.3,1.4c0.5-0.4,0.7-0.6,0.9-0.8c2.8-2.8,5.6-5.6,8.3-8.5c1.3-1.4,2.6-2.9,3.9-4.4 c0.4-0.4,0.6-0.9,0.7-1.4c0.5-3.1,1.2-6.2,1.7-9.3c0.6-3.9,0.6-7.7-0.3-11.1c-0.4-1.4-0.7-2.7-1-4.1c-0.3-1.1-0.5-2.1-0.8-3.2 c-1.4-6.4-0.4-13.3,2.4-20.5c0.1-0.2,0.1-0.4,0.2-0.6c-0.2,0-0.2-0.1-0.3-0.1c-3,1.2-6,2.5-9.1,3.8c-0.2,0.1-0.3,0.2-0.5,0.3 c-0.3,1.3-0.6,2.6-0.9,3.9c-0.6,2.5-0.9,5-0.9,7.4C1239.5,36.6,1239.7,39.5,1239.9,42.3L1239.9,42.3z"></path> <path class="st0" d="M1169,170.6c1.5-1,2.9-2.2,4.5-3.4c-0.2-0.2-0.3-0.4-0.5-0.5c-1.7-1.1-2.8-2.6-3.5-4.3c-0.8-2-1.6-4-2.3-6 c-0.7-2-1.2-4.1-1.4-6.2c-0.3-2.7-0.6-5.5-0.8-8.2c-0.2-3.5-0.1-7,0.5-10.6c0.2-1,0.3-1.9,0.4-2.9c1.3-8.5,0.2-16.5-3.8-23.8 c-1.2-2.3-2.4-4.6-3.7-6.9c-3.2-6-5.7-12.2-7-19c-0.5-2.5-1-4.9-0.8-7.5c0-0.2-0.1-0.4-0.2-0.7c-0.5,0.5-0.9,0.8-1.3,1.2 c-2.3,2.3-4.5,4.8-6.7,7.2c-0.6,0.7-0.8,1.3-0.8,2.1c0.1,2.8,0.4,5.6,0.8,8.4c0.5,3.2,0.7,6.4,0.7,9.6c0,1.2,0,2.4,0,3.6 c0,6.6,0.4,13.1,1.3,19.6c0.8,6.6,2.9,12.7,6.2,18.4c0.8,1.4,1.7,2.9,2.6,4.3c2,3.1,4.1,6,6.4,8.9c1.7,2.2,3.2,4.5,4.5,6.9 c1.6,2.9,3.1,5.9,4.3,9C1168.5,170.1,1168.5,170.4,1169,170.6L1169,170.6z"></path> <path class="st0" d="M1285.3,137.7c-1.1,0.3-2.2,0.6-3.2,1.1c-3.7,1.6-7.4,3-11.1,4.3c-4.2,1.5-8.5,3.2-12.8,4.5 c-5.7,1.8-11.5,3.4-17.5,4.2c-3.1,0.4-6.2,0.8-9.3,1c-4,0.3-8,0.5-12.1,0.8c-6.6,0.5-13.3,1.3-20,2.8c-4.2,0.9-8.4,1.9-12.4,3.6 c-1,0.4-1.7,1.1-2.3,1.9c0,0.1,0.1,0.1,0.1,0.2c0.3-0.1,0.6-0.1,0.9-0.2c1.3-0.3,2.5-0.7,3.8-1c2.5-0.5,5-1,7.4-1.5 c9-1.7,17.9-2.4,26.5-1.8c7.3,0.6,14.5,0.3,21.6-0.9c2.5-0.4,5.1-0.8,7.6-1.3c5-0.9,9.9-1.5,14.8-1.5c3.4,0,6.7,0.2,9.9,1.2 c2,0.6,4,1.4,5.8,2.5c0.2,0.2,0.5,0.3,0.8,0.4c1.2-2.4,2.2-16.2,2-20.3C1285.6,137.7,1285.5,137.7,1285.3,137.7L1285.3,137.7z"></path> <path class="st0" d="M1278.7,92.9c-4.5,1.1-9.1,2.4-13.7,3.6c-4.8,1.3-9.7,2.1-14.7,2.6c-2.9,0.3-5.8,0.4-8.7,0.7 c-3.6,0.3-7.3,0.5-11,1.1c-3.2,0.4-6.3,1.2-9.5,2.4c-0.7,0.3-1.2,0.7-1.7,1.3c-2.2,3.2-4.3,6.5-6.1,9.8c-0.2,0.4-0.5,0.8-0.6,1.5 c0.5-0.3,0.7-0.5,1-0.7c1.6-1,3.1-2.1,4.7-3.1c4.2-2.6,8.7-4.3,13.2-5.5c3.8-1,7.6-1.6,11.3-2.2c2.8-0.4,5.6-0.8,8.3-1.2 c9.8-1.6,19.4-3.5,28.8-6c2.3-0.6,4.5-1.2,6.8-1.8c0.1,0,0.3-0.1,0.5-0.2c0.2-1.4,0.3-2.7,0.4-4.1c-0.3,0-0.5,0-0.7,0 C1284.3,91.7,1281.5,92.2,1278.7,92.9L1278.7,92.9z"></path> <path class="st0" d="M1284.4,97.6c-4.4,1.5-8.9,2.6-13.5,3.7c-9.2,2.3-18.5,4.1-28,5.8c-2.4,0.4-4.8,0.9-7.2,1.4 c-3.1,0.7-6.1,1.5-9.2,2.6c-5.5,2-10.5,5.2-15.5,8.4c-0.4,0.3-0.7,0.7-0.9,1.1c-0.5,1.2-1,2.4-1.6,3.6c-0.1,0.2-0.2,0.4,0,0.6 c1.3-0.1,2.6-0.2,3.9-0.3c1.3-0.1,2.7-0.1,4-0.1c1.8-0.1,3.5-0.5,5.3-1.1c1.3-0.5,2.6-1,3.9-1.5c1.6-0.6,3.2-1.3,4.8-1.9 c2.7-1,5.4-1.5,8.1-1.6c1.2,0,2.4,0,3.6,0.1c3.1,0.3,6.1,0.7,9.1,1.1c6.3,0.8,12.5,1.3,18.8,0.8c5.3-0.4,10.5-1.1,15.6-1.6 c0.2,0,0.4-0.1,0.6-0.2c0.3-7.2,0.6-14.4,0.9-21.8c-0.5,0.2-1,0.3-1.4,0.4C1285.4,97.3,1284.9,97.4,1284.4,97.6z"></path> <path class="st0" d="M1292.3,48.9c-1.7,0.9-3.3,1.8-5,2.7c-2.7,1.5-5.3,3.2-7.9,5.1c-3.6,2.7-7.2,5.4-10.7,8.1 c-2.1,1.6-4.2,3.2-6.3,4.9c-4.1,3.2-8.4,5.8-12.9,8c-1.9,0.9-3.8,1.9-5.7,2.8c-1.1,0.5-2.1,1-3.2,0.9c-0.6,0-1.2,0.3-1.8,0.9 c-1,1.1-2,2.1-3,3.1c-0.2,0.2-0.4,0.5-0.8,1c0.6-0.2,1-0.4,1.3-0.5c2.6-1.2,5.3-2.3,7.9-3.2c1.3-0.5,2.6-0.9,3.8-1.4 c4.4-1.6,8.7-3.7,12.9-6.4c0.4-0.3,0.8-0.6,1.3-0.8c3.1-2,6.2-4,9.3-5.9c6.3-4,12.7-6.7,19.1-8.7c0.5-0.2,1-0.3,1.5-0.4 c0.4-1.4,0.7-3.8,1-8c0.1-0.8,0.2-1.6,0-2.4C1293,48.6,1292.6,48.7,1292.3,48.9L1292.3,48.9z"></path> <path class="st0" d="M1286.8,63c-4.7,2.2-9.4,4.7-14,7.5c-3.3,2-6.6,3.9-9.9,6c-4.6,2.8-9.4,5-14.2,6.7 c-5.4,1.9-10.8,4.1-16.2,6.5c-0.5,0.2-1,0.5-1.4,0.9c-2.5,2.7-5,5.5-7.2,8.4c-0.2,0.2-0.3,0.5-0.5,0.8c0.4-0.1,0.6-0.1,0.8-0.1 c2.4-0.8,4.8-1.3,7.2-1.6c2.3-0.3,4.5-0.5,6.8-0.7c3-0.2,5.9-0.4,8.9-0.6c5.5-0.4,10.9-1.1,16.3-2.5c2-0.5,4-0.9,6-1.4 c6.1-1.4,12.2-3.1,18.2-3.9c0.2,0,0.4-0.1,0.6-0.2c0.1-0.3,0.1-0.6,0.2-0.9c0.7-6.4,1.8-12.8,2.8-19.3c0.4-2.2,0.7-4.5,1.1-6.7 c0.1-0.3,0.2-0.7-0.1-0.9C1290.2,61.5,1288.5,62.1,1286.8,63L1286.8,63z"></path> <path class="st0" d="M1228.8,213.7c-4.2-1.1-8.6-1.8-13-2.3c-6.4-0.7-12.7-1.9-19-4.2c-2-0.7-3.9-1.5-5.8-2.4 c-3.3-1.6-6.4-3.3-9.6-5.1c-3.4-1.9-6.6-4-9.7-6.3c-2.1-1.6-4.3-3.3-6.5-4.9c-2.5-1.8-5.1-3.3-8.1-4.4c-2-0.7-1.5-0.8-3.3,0.3 c-0.3,0.2-0.8,0.3-0.8,0.7c0.1,0.1,0.2,0.2,0.3,0.2c1,0.4,2,0.9,3,1.3c4.3,1.8,8.4,4,12.2,6.6c2.5,1.7,4.9,3.4,7.3,5.2 c4.9,3.5,10.1,6.5,15.5,9c2.7,1.3,5.5,2.4,8.2,3.6c4.3,1.9,8.7,3.1,13.1,4.3c3.1,0.8,6.2,1.6,9.2,2.4h19.4 c-1.3-0.4-2.6-0.9-3.9-1.3C1234.4,215.3,1231.7,214.5,1228.8,213.7L1228.8,213.7z"></path> <path class="st0" d="M1267.3,196.1c1.3-2.4,2.6-4.9,3.9-7.3c0.4-0.8,0.8-1.6,1.2-2.4c0-0.1,0-0.2,0-0.3c-0.3-0.4-0.8-0.3-1.2-0.3 c-1.6-0.1-3.3,0.1-5,0.4c-4.5,0.8-9,1.7-13.6,2.6c-3.2,0.6-6.4,1.1-9.6,1.5c-8,1-16.1,1.3-24.4,1.6c-6.9,0.3-13.7-0.7-20.5-2.7 c-2.2-0.7-4.4-1.3-6.7-1.9c-3.4-1-6.8-2.1-10.1-3.4c-1.6-0.7-3.3-1.3-4.9-2c-1.5-0.6-3-1.2-4.5-1.7c-2.4-0.8-5-1.3-7.6-1.6 c-0.5,0-0.9,0-1.2,0.3c-1.6,1-3.2,2-4.8,3c-0.2,0.1-0.3,0.3-0.5,0.5c0.3,0.1,0.5,0.2,0.7,0.3c1.4,0.4,2.8,0.9,4.1,1.6 c2.6,1.2,4.9,2.7,7.2,4.3c2.3,1.6,4.5,3.2,6.8,4.8c2.7,1.9,5.6,3.5,8.5,5.1c4.2,2.4,8.5,4.4,12.9,6.1c2.9,1.1,5.7,1.9,8.7,2.6 c3.4,0.7,6.7,1.2,10.1,1.6c4.2,0.5,8.3,1.1,12.3,2.2c2.7,0.8,5.4,1.7,8.1,2.6c3,1.1,6,2.2,8.8,3.6c0.4,0.2,0.9,0.4,1.4,0.6h3.9 C1257.6,211.6,1262.8,204.3,1267.3,196.1L1267.3,196.1z"></path> <path class="st0" d="M1285.5,120.9c-1.2,0.2-2.5,0.4-3.8,0.6c-4.9,0.8-9.8,1.5-14.7,1.6c-6.1,0.2-12.1-0.3-18.2-1.2 c-2.7-0.4-5.4-0.8-8.2-0.9c-3.7-0.2-7.4,0.4-11.1,2c-1.5,0.7-3,1.3-4.6,2c-2.2,0.9-4.4,1.7-6.7,2c-3,0.5-6,0.6-9.1,0.4 c-0.5,0-1.1-0.1-1.7-0.2c-0.1,0.3-0.2,0.5-0.3,0.7c-1,2.2-1.9,4.5-3,6.7c-1.1,2.2-2.3,4.4-3.5,6.6c-1,1.7-2.1,3.4-3.1,5.1 c-0.1,0.2-0.4,0.4-0.1,0.7c0.2-0.1,0.5-0.2,0.7-0.3c2.5-1.1,5.1-1.9,7.7-2.3c2.3-0.4,4.5-0.7,6.8-0.9c4.3-0.3,8.6-0.6,12.8-0.7 c7.8-0.3,15.4-0.8,22.9-1.6c4.9-0.5,9.8-1.5,14.7-2.4c3.1-0.6,6.1-1.4,9.1-2.3c2.9-0.9,5.7-2.1,8.5-3.2c1.8-0.7,3.6-1.4,5.4-1.3 c0-0.3,0.1-0.5,0.1-0.7c0.1-3.2,0.2-6.5,0.2-9.8c0-0.2-0.1-0.4-0.1-0.6C1286,120.8,1285.7,120.8,1285.5,120.9L1285.5,120.9z"></path> <path class="st0" d="M1272.2,156.4c-5-0.3-10.1,0.1-15.2,0.9c-2.4,0.4-4.8,0.9-7.2,1.4c-8.7,1.8-17.5,2.6-26.6,1.7 c-5.5-0.5-11.2-0.5-16.9,0.1c-5.5,0.5-10.9,1.4-16.5,2.3c-2.5,0.5-5,1.1-7.5,1.8c-0.8,0.2-1.5,0.6-2.1,1.2 c-1.5,1.3-3,2.6-4.5,3.8c-2.5,1.9-5,3.8-7.5,5.7c-0.3,0.2-0.7,0.4-0.8,0.7c0,0.1,0.1,0.1,0.1,0.1c0.2,0,0.3,0.1,0.5,0.1 c2.1,0.2,4.1,0.7,6,1.4c2.9,1.1,5.8,2.1,8.7,3.2c1.8,0.6,3.6,1.3,5.4,1.8c4.9,1.5,9.8,2.9,14.7,4.1c4,1,8.1,1.6,12.1,1.7 c1.5,0,3.1,0.1,4.6,0.1c5.2-0.2,10.2-0.3,15.3-0.5c7.4-0.4,14.6-1.2,21.7-2.6c3.5-0.7,7.1-1.2,10.6-1.6c2-0.2,3.9-0.3,5.8,0 c0.2,0,0.4,0,0.7,0.1c0.3-0.6,0.7-1.2,0.9-1.9c1-2.2,2.1-4.5,3.2-6.7c1.8-3.8,3.4-7.7,4.7-11.8c0.4-1.1,0.8-2.3,0.9-3.6 c-0.3-0.2-0.7-0.5-1-0.6C1279.2,157.7,1275.9,156.7,1272.2,156.4L1272.2,156.4z"></path> <path class="st0" d="M1285.4,133.3c-2,0.6-4,1.5-6,2.4c-3.5,1.6-7,3.1-10.6,4.2c-2.7,0.8-5.4,1.4-8.2,2c-8.2,1.8-16.6,3-25.2,3.5 c-5.1,0.3-10.3,0.5-15.6,0.7c-3.9,0.1-7.8,0.4-11.7,0.8c-4.6,0.5-9,2-13.3,3.9c-0.3,0.2-0.7,0.4-0.9,0.7 c-1.4,1.7-2.9,3.4-4.3,5.1c-0.1,0.1-0.1,0.3-0.3,0.6c0.4-0.1,0.7-0.2,0.9-0.2c1.9-0.6,3.8-1.2,5.7-1.8c3.4-1,6.8-1.6,10.1-2.2 c6.6-1.1,13-1.7,19.4-2.1c5.2-0.3,10.3-0.7,15.3-1.4c7.3-1.1,14.5-2.9,21.5-5.2c6.2-2,12.3-4,18.2-6.4c1.7-0.7,3.4-1.2,5.1-1.4 c0.1,0,0.1-0.1,0.3-0.2c0.1-0.6,0.1-1.3,0.1-2c0-0.4,0-0.7,0-1.1C1285.7,133.3,1285.5,133.3,1285.4,133.3L1285.4,133.3z"></path> </g> <path class="st1" d="M1130.2,162.9c-0.6-0.6-1.2-1.3-1.9-1.9c-0.8,0.4-1.5,0.9-2.3,1.4c0.6,0.7,1.2,1.3,1.8,2 C1128.6,163.8,1129.4,163.3,1130.2,162.9L1130.2,162.9z"></path> <g> <path class="st0" d="M1122.2,105.1c-0.8,2.4-1.5,4.9-2,7.3c0.8-3.2,1.7-6.3,2.6-9.1C1122.7,103.9,1122.4,104.5,1122.2,105.1 L1122.2,105.1z"></path> <path class="st0" d="M1166.6,170.8c-1.3-2.6-2.7-5.2-3.9-7.9c-1.6-3.2-3.4-6.2-5.5-9.1c-1.6-2.2-3.1-4.3-4.6-6.5 c-2.5-3.7-4.7-7.5-6.5-11.5c-2.2-4.9-3.5-10.1-4.4-15.5c-0.7-4.6-1.2-9.3-1.4-14c-0.1-2.9-0.2-5.8-0.2-8.8c0-3.1-0.1-6.3-0.4-9.4 c-0.1-1.4-0.2-2.8-0.3-4.1c0-0.3-0.1-0.6-0.1-1.1c-0.5,0.5-0.8,0.7-1,1c-1.1,1.3-2.2,2.5-3.4,3.8c-2.1,2.1-4.2,4.2-6.2,6.2 c0,0-18.2,39.2,4.2,60.4c15.5,14.6,17.7,23.7,17.6,28c0.9-0.5,1.4-0.8,1.4-0.8c3.9-2.3,7.7-4.7,11.6-7c1-0.6,2-1.3,2.9-1.9 c0.2-0.2,0.4-0.4,0.7-0.6C1166.9,171.5,1166.7,171.1,1166.6,170.8L1166.6,170.8z"></path> </g> <g> <path class="st0" d="M1112.2,137.9c-0.3-1.1-0.3-2.7-0.3-4.3c-0.1-3.4,0.3-6.8,1-10.3c1-4.9,1.1-9.9,0.8-14.8 c0-0.2-0.1-0.4-0.2-0.7c-0.6,0.3-0.9,0.7-1.3,1.1c-3.7,3.7-7,7.5-9.7,11.7c-0.7,1-1.3,2.1-1.9,3.1 C1104,128.5,1113,141.1,1112.2,137.9L1112.2,137.9z"></path> <path class="st0" d="M1112.2,137.9c-0.1-0.7-0.2-1.5-0.2-2.2c0-0.7,0-1.4-0.1-2.1C1111.9,135.2,1112,136.8,1112.2,137.9 L1112.2,137.9z"></path> </g> <path class="st0" d="M1118.2,157.5c-2.8-2.3,0-3.1,0-3.1c15.1,9.8,19.2,28.9,20.1,35.4c3.5-2.3,6.8-4.3,9.2-5.8 c-0.5-1.8-1.4-4.9-2.9-8.6c-2-3.8-4.2-7.5-6.5-11.1c-0.4-0.5-0.7-1.1-1.1-1.6c0.9,1-6.3-7.1-11.4-12.9 c-9.2-10.6-9.3-22.1-5.4-37.4c0.5-2.4,1.2-4.9,2-7.3c0.2-0.6,0.4-1.2,0.6-1.8c0.6-2,1.3-3.9,1.9-5.6c-0.1,0-0.1-0.1-0.2-0.1 c-0.3,0.2-0.6,0.5-0.9,0.7c-1.5,1.3-3,2.7-4.6,4c-1,0.9-2,1.9-3.1,2.8c-0.7,0.6-0.9,1.1-0.8,1.8c0.1,0.4,0.1,0.8,0.1,1.2 c0.6,5.7,0.2,11.4-1.1,17.2c-0.4,2.3-0.2,8-0.2,10.4s3.8,12.9,3.3,14.3c-0.6,1.4-4.8-5.8-4.8-5.8c-1.8-3.8-14.5-18-14.5-18 c-0.2,0.3-0.4,0.5-0.5,0.8c-0.8,1.4-1.6,2.8-2.4,4.3c-3.1,5.5-6.3,11-10.2,16.1c-4.7,6.2-10,12-15.8,17.3 c-2.6,2.4-5.1,4.8-7.5,7.5c-3.2,3.5-5.5,7.8-6.9,12.8c-0.6,2.1-1.1,4.1-1.7,6.2c-0.8,2.9-1.8,5.7-3.3,8.3 c-1.9,3.4-4.3,6.5-6.8,9.5c-0.5,0.5-1,1-1.5,1.6c0.2,0.4,0.3,0.7,0.4,0.9c1.1,2,2.2,4,3.2,6.1h17.6c2.9-4.3,5.9-8.5,8.9-12.6 c5.9-8.1,11.5-16.2,16.7-24.4c3.4-5.4,6.3-11.1,9.3-16.7c1.2-2.3,2.3-4.7,3.3-7.1c0.4,0.7,0.8,1.4,1.2,2c0.3,0.4,0.6,0.8,0.8,1.3 c-1.3,3-2.7,5.8-4.1,8.7c-4.7,9.8-10.3,19.1-16.6,28.2c-3.8,5.4-7.8,10.8-11.8,16.2c-1,1.4-2.1,2.8-3.1,4.3h8.3 c1.4-2.1,2.8-4.1,4.2-6.1c3.8-5.4,7.5-10.9,10.8-16.6c4.8-8.2,8.6-16.9,11.9-25.8c0.8-2.1,1.5-4.1,2.3-6.1 c0.5,0.8,1.1,1.6,1.7,2.3c-1.2,3.5-2.4,7.1-3.7,10.6c-2.8,7.2-5.8,14.3-9.8,21c-2.1,3.4-4.2,6.9-6.4,10.2c-2.3,3.5-4.8,7-7.2,10.5 h7c5.8-6.5,10.8-13.5,15.1-21c1.6-2.9,3.2-5.8,4.8-8.7c2.5-4.6,5.2-9.1,8.2-13.3c0.7,0.7,1.5,1.4,2.3,2.1c-1.8,2.6-3.4,5.3-5,8.1 c-1.5,2.7-2.9,5.5-4.3,8.3c-4.4,8.8-9.6,16.9-16.1,24.4h20.2c1.5-3.4,3.5-7.4,3.5-7.4c1.6-4.5,10.4-11.4,19.1-17.4 C1135.9,177.5,1121,159.7,1118.2,157.5L1118.2,157.5z"></path> <path class="st0" d="M1210.6,217.6c-3.4-0.7-6.7-1.6-10-2.9c-5-2-10-4.1-14.9-6.7c-3.4-1.8-6.7-3.8-9.9-6c-2.7-1.9-5.3-3.9-7.9-6 c-2.8-2.2-5.7-4.3-9-6c-2.5-1.3-5-2.5-7.5-3.7c-20.3,8.5-31.9,24-36.5,31.4L1210.6,217.6L1210.6,217.6z"></path> </g> </g> <g id="Capa_1-2"> <path class="st2" d="M1400,252.4v-41.3c-45.9-12.3-124.8-32.7-193.1-46.4c-103.5-20.7-346.8,12.9-415.4,18.1 c-68.6,5.2-342.9-27.2-427-25.9c-71,1.1-296.3,65.9-364.5,86v9.5L1400,252.4L1400,252.4z"></path> </g> </svg> 